<svg version="1.1" viewBox="0.0 0.0 845.0 378.0" fill="none" stroke="none" stroke-linecap="square" stroke-miterlimit="10" width="845" height="378" xmlns:xlink="http://www.w3.org/1999/xlink" xmlns="http://www.w3.org/2000/svg"><path fill="#ffffff" d="M0 0L845.0 0L845.0 378.0L0 378.0L0 0Z" fill-rule="nonzero"/><path stroke="#cccccc" stroke-width="1.0" stroke-linecap="butt" d="M88.5 84.5L88.5 301.5" fill-rule="nonzero"/><path stroke="#cccccc" stroke-width="1.0" stroke-linecap="butt" d="M290.5 84.5L290.5 301.5" fill-rule="nonzero"/><path stroke="#cccccc" stroke-width="1.0" stroke-linecap="butt" d="M493.5 84.5L493.5 301.5" fill-rule="nonzero"/><path stroke="#cccccc" stroke-width="1.0" stroke-linecap="butt" d="M695.5 84.5L695.5 301.5" fill-rule="nonzero"/><path stroke="#e6e6e6" stroke-width="1.0" stroke-linecap="butt" d="M270.5 84.5L270.5 301.5" fill-rule="nonzero"/><path stroke="#e6e6e6" stroke-width="1.0" stroke-linecap="butt" d="M250.5 84.5L250.5 301.5" fill-rule="nonzero"/><path stroke="#e6e6e6" stroke-width="1.0" stroke-linecap="butt" d="M229.5 84.5L229.5 301.5" fill-rule="nonzero"/><path stroke="#e6e6e6" stroke-width="1.0" stroke-linecap="butt" d="M209.5 84.5L209.5 301.5" fill-rule="nonzero"/><path stroke="#e6e6e6" stroke-width="1.0" stroke-linecap="butt" d="M189.5 84.5L189.5 301.5" fill-rule="nonzero"/><path stroke="#e6e6e6" stroke-width="1.0" stroke-linecap="butt" d="M169.5 84.5L169.5 301.5" fill-rule="nonzero"/><path stroke="#e6e6e6" stroke-width="1.0" stroke-linecap="butt" d="M148.5 84.5L148.5 301.5" fill-rule="nonzero"/><path stroke="#e6e6e6" stroke-width="1.0" stroke-linecap="butt" d="M128.5 84.5L128.5 301.5" fill-rule="nonzero"/><path stroke="#e6e6e6" stroke-width="1.0" stroke-linecap="butt" d="M108.5 84.5L108.5 301.5" fill-rule="nonzero"/><path stroke="#e6e6e6" stroke-width="1.0" stroke-linecap="butt" d="M472.5 84.5L472.5 301.5" fill-rule="nonzero"/><path stroke="#e6e6e6" stroke-width="1.0" stroke-linecap="butt" d="M452.5 84.5L452.5 301.5" fill-rule="nonzero"/><path stroke="#e6e6e6" stroke-width="1.0" stroke-linecap="butt" d="M432.5 84.5L432.5 301.5" fill-rule="nonzero"/><path stroke="#e6e6e6" stroke-width="1.0" stroke-linecap="butt" d="M412.5 84.5L412.5 301.5" fill-rule="nonzero"/><path stroke="#e6e6e6" stroke-width="1.0" stroke-linecap="butt" d="M391.5 84.5L391.5 301.5" fill-rule="nonzero"/><path stroke="#e6e6e6" stroke-width="1.0" stroke-linecap="butt" d="M371.5 84.5L371.5 301.5" fill-rule="nonzero"/><path stroke="#e6e6e6" stroke-width="1.0" stroke-linecap="butt" d="M351.5 84.5L351.5 301.5" fill-rule="nonzero"/><path stroke="#e6e6e6" stroke-width="1.0" stroke-linecap="butt" d="M331.5 84.5L331.5 301.5" fill-rule="nonzero"/><path stroke="#e6e6e6" stroke-width="1.0" stroke-linecap="butt" d="M310.5 84.5L310.5 301.5" fill-rule="nonzero"/><path stroke="#e6e6e6" stroke-width="1.0" stroke-linecap="butt" d="M675.5 84.5L675.5 301.5" fill-rule="nonzero"/><path stroke="#e6e6e6" stroke-width="1.0" stroke-linecap="butt" d="M655.5 84.5L655.5 301.5" fill-rule="nonzero"/><path stroke="#e6e6e6" stroke-width="1.0" stroke-linecap="butt" d="M634.5 84.5L634.5 301.5" fill-rule="nonzero"/><path stroke="#e6e6e6" stroke-width="1.0" stroke-linecap="butt" d="M614.5 84.5L614.5 301.5" fill-rule="nonzero"/><path stroke="#e6e6e6" stroke-width="1.0" stroke-linecap="butt" d="M594.5 84.5L594.5 301.5" fill-rule="nonzero"/><path stroke="#e6e6e6" stroke-width="1.0" stroke-linecap="butt" d="M574.5 84.5L574.5 301.5" fill-rule="nonzero"/><path stroke="#e6e6e6" stroke-width="1.0" stroke-linecap="butt" d="M553.5 84.5L553.5 301.5" fill-rule="nonzero"/><path stroke="#e6e6e6" stroke-width="1.0" stroke-linecap="butt" d="M533.5 84.5L533.5 301.5" fill-rule="nonzero"/><path stroke="#e6e6e6" stroke-width="1.0" stroke-linecap="butt" d="M513.5 84.5L513.5 301.5" fill-rule="nonzero"/><path stroke="#e6e6e6" stroke-width="1.0" stroke-linecap="butt" d="M817.5 84.5L817.5 301.5" fill-rule="nonzero"/><path stroke="#e6e6e6" stroke-width="1.0" stroke-linecap="butt" d="M796.5 84.5L796.5 301.5" fill-rule="nonzero"/><path stroke="#e6e6e6" stroke-width="1.0" stroke-linecap="butt" d="M776.5 84.5L776.5 301.5" fill-rule="nonzero"/><path stroke="#e6e6e6" stroke-width="1.0" stroke-linecap="butt" d="M756.5 84.5L756.5 301.5" fill-rule="nonzero"/><path stroke="#e6e6e6" stroke-width="1.0" stroke-linecap="butt" d="M736.5 84.5L736.5 301.5" fill-rule="nonzero"/><path stroke="#e6e6e6" stroke-width="1.0" stroke-linecap="butt" d="M715.5 84.5L715.5 301.5" fill-rule="nonzero"/><path stroke="#cccccc" stroke-width="1.0" stroke-linecap="butt" d="M83.5 301.5L826.5 301.5" fill-rule="nonzero"/><path stroke="#333333" stroke-width="1.0" stroke-linecap="butt" d="M83.5 257.5L826.5 257.5" fill-rule="nonzero"/><path stroke="#cccccc" stroke-width="1.0" stroke-linecap="butt" d="M83.5 214.5L826.5 214.5" fill-rule="nonzero"/><path stroke="#cccccc" stroke-width="1.0" stroke-linecap="butt" d="M83.5 170.5L826.5 170.5" fill-rule="nonzero"/><path stroke="#cccccc" stroke-width="1.0" stroke-linecap="butt" d="M83.5 127.5L826.5 127.5" fill-rule="nonzero"/><path stroke="#cccccc" stroke-width="1.0" stroke-linecap="butt" d="M83.5 84.5L826.5 84.5" fill-rule="nonzero"/><path stroke="#e6e6e6" stroke-width="1.0" stroke-linecap="butt" d="M83.5 292.5L826.5 292.5" fill-rule="nonzero"/><path stroke="#e6e6e6" stroke-width="1.0" stroke-linecap="butt" d="M83.5 283.5L826.5 283.5" fill-rule="nonzero"/><path stroke="#e6e6e6" stroke-width="1.0" stroke-linecap="butt" d="M83.5 275.5L826.5 275.5" fill-rule="nonzero"/><path stroke="#e6e6e6" stroke-width="1.0" stroke-linecap="butt" d="M83.5 266.5L826.5 266.5" fill-rule="nonzero"/><path stroke="#e6e6e6" stroke-width="1.0" stroke-linecap="butt" d="M83.5 248.5L826.5 248.5" fill-rule="nonzero"/><path stroke="#e6e6e6" stroke-width="1.0" stroke-linecap="butt" d="M83.5 240.5L826.5 240.5" fill-rule="nonzero"/><path stroke="#e6e6e6" stroke-width="1.0" stroke-linecap="butt" d="M83.5 231.5L826.5 231.5" fill-rule="nonzero"/><path stroke="#e6e6e6" stroke-width="1.0" stroke-linecap="butt" d="M83.5 222.5L826.5 222.5" fill-rule="nonzero"/><path stroke="#e6e6e6" stroke-width="1.0" stroke-linecap="butt" d="M83.5 205.5L826.5 205.5" fill-rule="nonzero"/><path stroke="#e6e6e6" stroke-width="1.0" stroke-linecap="butt" d="M83.5 196.5L826.5 196.5" fill-rule="nonzero"/><path stroke="#e6e6e6" stroke-width="1.0" stroke-linecap="butt" d="M83.5 188.5L826.5 188.5" fill-rule="nonzero"/><path stroke="#e6e6e6" stroke-width="1.0" stroke-linecap="butt" d="M83.5 179.5L826.5 179.5" fill-rule="nonzero"/><path stroke="#e6e6e6" stroke-width="1.0" stroke-linecap="butt" d="M83.5 162.5L826.5 162.5" fill-rule="nonzero"/><path stroke="#e6e6e6" stroke-width="1.0" stroke-linecap="butt" d="M83.5 153.5L826.5 153.5" fill-rule="nonzero"/><path stroke="#e6e6e6" stroke-width="1.0" stroke-linecap="butt" d="M83.5 144.5L826.5 144.5" fill-rule="nonzero"/><path stroke="#e6e6e6" stroke-width="1.0" stroke-linecap="butt" d="M83.5 136.5L826.5 136.5" fill-rule="nonzero"/><path stroke="#e6e6e6" stroke-width="1.0" stroke-linecap="butt" d="M83.5 118.5L826.5 118.5" fill-rule="nonzero"/><path stroke="#e6e6e6" stroke-width="1.0" stroke-linecap="butt" d="M83.5 110.5L826.5 110.5" fill-rule="nonzero"/><path stroke="#e6e6e6" stroke-width="1.0" stroke-linecap="butt" d="M83.5 101.5L826.5 101.5" fill-rule="nonzero"/><path stroke="#e6e6e6" stroke-width="1.0" stroke-linecap="butt" d="M83.5 92.5L826.5 92.5" fill-rule="nonzero"/><path stroke="#000000" stroke-width="1.0" stroke-linecap="butt" d="M826.5 301.5L83.5 301.5" fill-rule="nonzero"/><path stroke="#000000" stroke-width="1.0" stroke-linecap="butt" d="M83.5 301.5L83.5 84.5" fill-rule="nonzero"/><clipPath id="id_0"><path d="M83.9 84.0L826.1 84.0L826.1 301.1L83.9 301.1L83.9 84.0Z" clip-rule="nonzero"/></clipPath><path stroke="#6d9eeb" stroke-width="1.0" stroke-linecap="butt" clip-path="url(#id_0)" d="M90.7704 117.886055C90.7704 117.886055 91.23917 135.70628 91.47355 141.89333C91.70793 148.08038 92.59859 165.40988 93.1611 173.36932C93.72362 181.32877 94.98928 193.3214 95.69243 197.79034C96.39557 202.2593 97.09872 202.04872 97.801865 204.25316C98.50501 206.45758 99.20815 209.17598 99.9113 211.01692C100.61445 212.85785 102.25512 216.71498 103.42703 218.15337C104.59894 219.59177 172.10095 247.41452 173.74162 248.03111C175.3823 248.6477 177.02298 249.26257 178.66365 249.63925C180.30432 250.01595 196.00792 252.13074 204.68005 253.0853C213.35217 254.03984 231.3996 255.38258 232.80588 255.55157C234.21217 255.72055 235.61847 256.03455 237.02477 256.19556C238.43105 256.35657 277.43222 259.29184 281.4636 259.58856C285.49496 259.8853 290.74512 260.3146 293.55768 260.44562C296.37027 260.57663 300.58914 260.55582 301.99545 260.63373C303.40173 260.71167 304.808 260.9096 306.21432 261.0072C307.6206 261.1048 376.48203 264.53586 380.46652 264.74017C384.45102 264.94446 390.0762 265.0448 392.42 265.36496C394.76382 265.6851 398.04517 267.09656 399.45148 266.9183C400.85776 266.74002 402.26407 265.18945 403.67035 264.91666C405.07663 264.64386 412.57687 265.81873 415.62384 265.95047C418.6708 266.08224 421.71777 265.8543 424.7647 265.95047C427.81168 266.04663 446.09348 267.34412 450.07797 267.5482C454.06247 267.75226 458.04697 267.7275 462.03146 268.0181C466.01596 268.30865 472.81302 269.5251 478.20383 269.74112C483.5946 269.95715 494.37616 269.26044 496.4856 269.25867C498.59506 269.2569 500.7045 269.38907 502.81393 269.41513C504.92337 269.44122 574.5348 269.24255 580.8631 269.41513C587.1914 269.5877 596.33234 270.3547 599.8481 270.4506C603.3638 270.54648 606.8795 270.37668 610.39526 270.4506C613.911 270.5245 623.0519 270.98676 629.3802 271.24875C635.7085 271.51074 644.8494 272.04156 652.584 272.19446C660.3186 272.34735 680.70984 272.15677 686.335 272.15332C691.9602 272.1499 697.5853 272.04846 703.2105 272.15332C708.8357 272.2582 793.9163 275.6537 800.2446 275.77167C806.573 275.88965 819.2296 275.77167 819.2296 275.77167" fill-rule="nonzero"/><path fill="#6d9eeb" clip-path="url(#id_0)" d="M95.2704 117.886055C95.2704 120.37134 93.255684 122.386055 90.7704 122.386055C88.285126 122.386055 86.2704 120.37134 86.2704 117.886055C86.2704 115.40077 88.285126 113.386055 90.7704 113.386055C93.255684 113.386055 95.2704 115.40077 95.2704 117.886055Z" fill-rule="nonzero"/><path fill="#6d9eeb" clip-path="url(#id_0)" d="M95.97355 141.89333C95.97355 144.37862 93.95883 146.39333 91.47355 146.39333C88.988266 146.39333 86.97355 144.37862 86.97355 141.89333C86.97355 139.40805 88.988266 137.39333 91.47355 137.39333C93.95883 137.39333 95.97355 139.40805 95.97355 141.89333Z" fill-rule="nonzero"/><path fill="#c27ba0" clip-path="url(#id_0)" d="M97.6611 173.36932C97.6611 175.8546 95.646385 177.86932 93.1611 177.86932C90.67582 177.86932 88.6611 175.8546 88.6611 173.36932C88.6611 170.88403 90.67582 168.86932 93.1611 168.86932C95.646385 168.86932 97.6611 170.88403 97.6611 173.36932Z" fill-rule="nonzero"/><path fill="#6d9eeb" clip-path="url(#id_0)" d="M100.19243 197.79034C100.19243 200.27562 98.177704 202.29034 95.69243 202.29034C93.207146 202.29034 91.19243 200.27562 91.19243 197.79034C91.19243 195.30507 93.207146 193.29034 95.69243 193.29034C98.177704 193.29034 100.19243 195.30507 100.19243 197.79034Z" fill-rule="nonzero"/><path fill="#6d9eeb" clip-path="url(#id_0)" d="M102.301865 204.25316C102.301865 206.73843 100.28715 208.75316 97.801865 208.75316C95.31658 208.75316 93.301865 206.73843 93.301865 204.25316C93.301865 201.76787 95.31658 199.75316 97.801865 199.75316C100.28715 199.75316 102.301865 201.76787 102.301865 204.25316Z" fill-rule="nonzero"/><path fill="#6d9eeb" clip-path="url(#id_0)" d="M104.4113 211.01692C104.4113 213.5022 102.39658 215.51692 99.9113 215.51692C97.42602 215.51692 95.4113 213.5022 95.4113 211.01692C95.4113 208.53163 97.42602 206.51692 99.9113 206.51692C102.39658 206.51692 104.4113 208.53163 104.4113 211.01692Z" fill-rule="nonzero"/><path fill="#c27ba0" clip-path="url(#id_0)" d="M107.92703 218.15337C107.92703 220.63866 105.912315 222.65337 103.42703 222.65337C100.94175 222.65337 98.92703 220.63866 98.92703 218.15337C98.92703 215.66809 100.94175 213.65337 103.42703 213.65337C105.912315 213.65337 107.92703 215.66809 107.92703 218.15337Z" fill-rule="nonzero"/><path fill="#6d9eeb" clip-path="url(#id_0)" d="M178.24162 248.03111C178.24162 250.51639 176.22691 252.53111 173.74162 252.53111C171.25635 252.53111 169.24162 250.51639 169.24162 248.03111C169.24162 245.54582 171.25635 243.53111 173.74162 243.53111C176.22691 243.53111 178.24162 245.54582 178.24162 248.03111Z" fill-rule="nonzero"/><path fill="#6d9eeb" clip-path="url(#id_0)" d="M183.16365 249.63925C183.16365 252.12454 181.14893 254.13925 178.66365 254.13925C176.17836 254.13925 174.16365 252.12454 174.16365 249.63925C174.16365 247.15398 176.17836 245.13925 178.66365 245.13925C181.14893 245.13925 183.16365 247.15398 183.16365 249.63925Z" fill-rule="nonzero"/><path fill="#6d9eeb" clip-path="url(#id_0)" d="M209.18005 253.0853C209.18005 255.57057 207.16533 257.5853 204.68005 257.5853C202.19476 257.5853 200.18005 255.57057 200.18005 253.0853C200.18005 250.6 202.19476 248.5853 204.68005 248.5853C207.16533 248.5853 209.18005 250.6 209.18005 253.0853Z" fill-rule="nonzero"/><path fill="#6d9eeb" clip-path="url(#id_0)" d="M237.30588 255.55157C237.30588 258.03687 235.29117 260.05157 232.80588 260.05157C230.3206 260.05157 228.30588 258.03687 228.30588 255.55157C228.30588 253.06628 230.3206 251.05157 232.80588 251.05157C235.29117 251.05157 237.30588 253.06628 237.30588 255.55157Z" fill-rule="nonzero"/><path fill="#6d9eeb" clip-path="url(#id_0)" d="M241.52477 256.19556C241.52477 258.68085 239.51004 260.69556 237.02477 260.69556C234.53947 260.69556 232.52477 258.68085 232.52477 256.19556C232.52477 253.71028 234.53947 251.69556 237.02477 251.69556C239.51004 251.69556 241.52477 253.71028 241.52477 256.19556Z" fill-rule="nonzero"/><path fill="#6d9eeb" clip-path="url(#id_0)" d="M285.9636 259.58856C285.9636 262.07385 283.94885 264.08856 281.4636 264.08856C278.9783 264.08856 276.9636 262.07385 276.9636 259.58856C276.9636 257.1033 278.9783 255.08858 281.4636 255.08858C283.94885 255.08858 285.9636 257.1033 285.9636 259.58856Z" fill-rule="nonzero"/><path fill="#6d9eeb" clip-path="url(#id_0)" d="M298.05768 260.44562C298.05768 262.93088 296.04297 264.94562 293.55768 264.94562C291.07242 264.94562 289.05768 262.93088 289.05768 260.44562C289.05768 257.96033 291.07242 255.9456 293.55768 255.9456C296.04297 255.9456 298.05768 257.96033 298.05768 260.44562Z" fill-rule="nonzero"/><path fill="#6d9eeb" clip-path="url(#id_0)" d="M306.49545 260.63373C306.49545 263.11902 304.4807 265.13373 301.99545 265.13373C299.51016 265.13373 297.49545 263.11902 297.49545 260.63373C297.49545 258.14847 299.51016 256.13373 301.99545 256.13373C304.4807 256.13373 306.49545 258.14847 306.49545 260.63373Z" fill-rule="nonzero"/><path fill="#6d9eeb" clip-path="url(#id_0)" d="M310.71432 261.0072C310.71432 263.4925 308.69962 265.5072 306.21432 265.5072C303.72903 265.5072 301.71432 263.4925 301.71432 261.0072C301.71432 258.5219 303.72903 256.5072 306.21432 256.5072C308.69962 256.5072 310.71432 258.5219 310.71432 261.0072Z" fill-rule="nonzero"/><path fill="#6d9eeb" clip-path="url(#id_0)" d="M384.96652 264.74017C384.96652 267.22543 382.9518 269.24017 380.46652 269.24017C377.98126 269.24017 375.96652 267.22543 375.96652 264.74017C375.96652 262.25488 377.98126 260.24017 380.46652 260.24017C382.9518 260.24017 384.96652 262.25488 384.96652 264.74017Z" fill-rule="nonzero"/><path fill="#6d9eeb" clip-path="url(#id_0)" d="M396.92 265.36496C396.92 267.85025 394.9053 269.86496 392.42 269.86496C389.93472 269.86496 387.92 267.85025 387.92 265.36496C387.92 262.87967 389.93472 260.86496 392.42 260.86496C394.9053 260.86496 396.92 262.87967 396.92 265.36496Z" fill-rule="nonzero"/><path fill="#6d9eeb" clip-path="url(#id_0)" d="M403.95148 266.9183C403.95148 269.40356 401.93677 271.4183 399.45148 271.4183C396.9662 271.4183 394.95148 269.40356 394.95148 266.9183C394.95148 264.433 396.9662 262.4183 399.45148 262.4183C401.93677 262.4183 403.95148 264.433 403.95148 266.9183Z" fill-rule="nonzero"/><path fill="#6d9eeb" clip-path="url(#id_0)" d="M408.17035 264.91666C408.17035 267.40195 406.15564 269.41666 403.67035 269.41666C401.18506 269.41666 399.17035 267.40195 399.17035 264.91666C399.17035 262.4314 401.18506 260.41666 403.67035 260.41666C406.15564 260.41666 408.17035 262.4314 408.17035 264.91666Z" fill-rule="nonzero"/><path fill="#6d9eeb" clip-path="url(#id_0)" d="M420.12384 265.95047C420.12384 268.43576 418.1091 270.45047 415.62384 270.45047C413.13855 270.45047 411.12384 268.43576 411.12384 265.95047C411.12384 263.4652 413.13855 261.45047 415.62384 261.45047C418.1091 261.45047 420.12384 263.4652 420.12384 265.95047Z" fill-rule="nonzero"/><path fill="#6d9eeb" clip-path="url(#id_0)" d="M429.2647 265.95047C429.2647 268.43576 427.25 270.45047 424.7647 270.45047C422.27945 270.45047 420.2647 268.43576 420.2647 265.95047C420.2647 263.4652 422.27945 261.45047 424.7647 261.45047C427.25 261.45047 429.2647 263.4652 429.2647 265.95047Z" fill-rule="nonzero"/><path fill="#6d9eeb" clip-path="url(#id_0)" d="M454.57797 267.5482C454.57797 270.03348 452.56326 272.0482 450.07797 272.0482C447.59268 272.0482 445.57797 270.03348 445.57797 267.5482C445.57797 265.0629 447.59268 263.0482 450.07797 263.0482C452.56326 263.0482 454.57797 265.0629 454.57797 267.5482Z" fill-rule="nonzero"/><path fill="#6d9eeb" clip-path="url(#id_0)" d="M466.53146 268.0181C466.53146 270.5034 464.51675 272.5181 462.03146 272.5181C459.54617 272.5181 457.53146 270.5034 457.53146 268.0181C457.53146 265.5328 459.54617 263.5181 462.03146 263.5181C464.51675 263.5181 466.53146 265.5328 466.53146 268.0181Z" fill-rule="nonzero"/><path fill="#6d9eeb" clip-path="url(#id_0)" d="M482.70383 269.74112C482.70383 272.22638 480.6891 274.24112 478.20383 274.24112C475.71854 274.24112 473.70383 272.22638 473.70383 269.74112C473.70383 267.25583 475.71854 265.24112 478.20383 265.24112C480.6891 265.24112 482.70383 267.25583 482.70383 269.74112Z" fill-rule="nonzero"/><path fill="#6d9eeb" clip-path="url(#id_0)" d="M500.9856 269.25867C500.9856 271.74396 498.9709 273.75867 496.4856 273.75867C494.00034 273.75867 491.9856 271.74396 491.9856 269.25867C491.9856 266.77338 494.00034 264.75867 496.4856 264.75867C498.9709 264.75867 500.9856 266.77338 500.9856 269.25867Z" fill-rule="nonzero"/><path fill="#6d9eeb" clip-path="url(#id_0)" d="M507.31393 269.41513C507.31393 271.90042 505.2992 273.91513 502.81393 273.91513C500.32864 273.91513 498.31393 271.90042 498.31393 269.41513C498.31393 266.92984 500.32864 264.91513 502.81393 264.91513C505.2992 264.91513 507.31393 266.92984 507.31393 269.41513Z" fill-rule="nonzero"/><path fill="#6d9eeb" clip-path="url(#id_0)" d="M585.3631 269.41513C585.3631 271.90042 583.3484 273.91513 580.8631 273.91513C578.37787 273.91513 576.3631 271.90042 576.3631 269.41513C576.3631 266.92984 578.37787 264.91513 580.8631 264.91513C583.3484 264.91513 585.3631 266.92984 585.3631 269.41513Z" fill-rule="nonzero"/><path fill="#6d9eeb" clip-path="url(#id_0)" d="M604.3481 270.4506C604.3481 272.93588 602.3334 274.9506 599.8481 274.9506C597.3628 274.9506 595.3481 272.93588 595.3481 270.4506C595.3481 267.9653 597.3628 265.9506 599.8481 265.9506C602.3334 265.9506 604.3481 267.9653 604.3481 270.4506Z" fill-rule="nonzero"/><path fill="#6d9eeb" clip-path="url(#id_0)" d="M614.89526 270.4506C614.89526 272.93588 612.88055 274.9506 610.39526 274.9506C607.91 274.9506 605.89526 272.93588 605.89526 270.4506C605.89526 267.9653 607.91 265.9506 610.39526 265.9506C612.88055 265.9506 614.89526 267.9653 614.89526 270.4506Z" fill-rule="nonzero"/><path fill="#6d9eeb" clip-path="url(#id_0)" d="M633.8802 271.24875C633.8802 273.73404 631.8655 275.74875 629.3802 275.74875C626.8949 275.74875 624.8802 273.73404 624.8802 271.24875C624.8802 268.76346 626.8949 266.74875 629.3802 266.74875C631.8655 266.74875 633.8802 268.76346 633.8802 271.24875Z" fill-rule="nonzero"/><path fill="#6d9eeb" clip-path="url(#id_0)" d="M657.084 272.19446C657.084 274.67975 655.0693 276.69446 652.584 276.69446C650.09875 276.69446 648.084 274.67975 648.084 272.19446C648.084 269.70917 650.09875 267.69446 652.584 267.69446C655.0693 267.69446 657.084 269.70917 657.084 272.19446Z" fill-rule="nonzero"/><path fill="#6d9eeb" clip-path="url(#id_0)" d="M690.835 272.15332C690.835 274.6386 688.8203 276.65332 686.335 276.65332C683.84973 276.65332 681.835 274.6386 681.835 272.15332C681.835 269.66806 683.84973 267.65332 686.335 267.65332C688.8203 267.65332 690.835 269.66806 690.835 272.15332Z" fill-rule="nonzero"/><path fill="#6d9eeb" clip-path="url(#id_0)" d="M707.7105 272.15332C707.7105 274.6386 705.6958 276.65332 703.2105 276.65332C700.7252 276.65332 698.7105 274.6386 698.7105 272.15332C698.7105 269.66806 700.7252 267.65332 703.2105 267.65332C705.6958 267.65332 707.7105 269.66806 707.7105 272.15332Z" fill-rule="nonzero"/><path fill="#6d9eeb" clip-path="url(#id_0)" d="M804.7446 275.77167C804.7446 278.25696 802.7299 280.27167 800.2446 280.27167C797.7594 280.27167 795.7446 278.25696 795.7446 275.77167C795.7446 273.28638 797.7594 271.27167 800.2446 271.27167C802.7299 271.27167 804.7446 273.28638 804.7446 275.77167Z" fill-rule="nonzero"/><path fill="#6d9eeb" clip-path="url(#id_0)" d="M823.7296 275.77167C823.7296 278.25696 821.7149 280.27167 819.2296 280.27167C816.7443 280.27167 814.7296 278.25696 814.7296 275.77167C814.7296 273.28638 816.7443 271.27167 819.2296 271.27167C821.7149 271.27167 823.7296 273.28638 823.7296 275.77167Z" fill-rule="nonzero"/><path stroke="#000000" stroke-width="1.0" stroke-linecap="butt" d="M88.5 307.5L88.5 295.5" fill-rule="nonzero"/><path stroke="#000000" stroke-width="1.0" stroke-linecap="butt" d="M290.5 307.5L290.5 295.5" fill-rule="nonzero"/><path stroke="#000000" stroke-width="1.0" stroke-linecap="butt" d="M493.5 307.5L493.5 295.5" fill-rule="nonzero"/><path stroke="#000000" stroke-width="1.0" stroke-linecap="butt" d="M695.5 307.5L695.5 295.5" fill-rule="nonzero"/><path stroke="#000000" stroke-width="1.0" stroke-linecap="butt" d="M77.5 301.5L89.5 301.5" fill-rule="nonzero"/><path stroke="#000000" stroke-width="1.0" stroke-linecap="butt" d="M77.5 257.5L89.5 257.5" fill-rule="nonzero"/><path stroke="#000000" stroke-width="1.0" stroke-linecap="butt" d="M77.5 214.5L89.5 214.5" fill-rule="nonzero"/><path stroke="#000000" stroke-width="1.0" stroke-linecap="butt" d="M77.5 170.5L89.5 170.5" fill-rule="nonzero"/><path stroke="#000000" stroke-width="1.0" stroke-linecap="butt" d="M77.5 127.5L89.5 127.5" fill-rule="nonzero"/><path stroke="#000000" stroke-width="1.0" stroke-linecap="butt" d="M77.5 84.5L89.5 84.5" fill-rule="nonzero"/><path fill="#000000" d="M392.45312 356.1L392.45312 347.50626L398.65625 347.50626L398.65625 348.52188L393.59375 348.52188L393.59375 351.14688L398.34375 351.14688L398.34375 352.1625L393.59375 352.1625L393.59375 355.08438L398.85938 355.08438L398.85938 356.1L392.45312 356.1ZM400.26562 356.1L400.26562 347.50626L401.32812 347.50626L401.32812 356.1L400.26562 356.1ZM407.35938 355.33438Q406.76562 355.83438 406.21875 356.0375Q405.6875 356.24063 405.0625 356.24063Q404.03125 356.24063 403.48438 355.74063Q402.9375 355.24063 402.9375 354.45938Q402.9375 354.00626 403.14062 353.63126Q403.34375 353.24063 403.6875 353.02188Q404.03125 352.7875 404.45312 352.67813Q404.75 352.58438 405.39062 352.50626Q406.65625 352.36563 407.26562 352.14688Q407.26562 351.92813 407.26562 351.88126Q407.26562 351.225 406.96875 350.95938Q406.5625 350.61563 405.76562 350.61563Q405.03125 350.61563 404.67188 350.88126Q404.3125 351.13126 404.14062 351.7875L403.10938 351.64688Q403.25 350.99063 403.57812 350.58438Q403.90625 350.17813 404.51562 349.95938Q405.125 349.74063 405.92188 349.74063Q406.71875 349.74063 407.21875 349.92813Q407.71875 350.11563 407.95312 350.39688Q408.1875 350.67813 408.28125 351.11563Q408.32812 351.38126 408.32812 352.08438L408.32812 353.49063Q408.32812 354.95938 408.39062 355.35Q408.46875 355.74063 408.67188 356.1L407.5625 356.1Q407.40625 355.77188 407.35938 355.33438ZM407.26562 352.975Q406.6875 353.20938 405.54688 353.38126Q404.89062 353.475 404.625 353.6Q404.35938 353.70938 404.20312 353.92813Q404.0625 354.14688 404.0625 354.42813Q404.0625 354.85 404.375 355.13126Q404.70312 355.4125 405.3125 355.4125Q405.92188 355.4125 406.39062 355.14688Q406.875 354.88126 407.09375 354.4125Q407.26562 354.05313 407.26562 353.36563L407.26562 352.975ZM410.29688 358.49063L410.29688 349.88126L411.25 349.88126L411.25 350.67813Q411.59375 350.20938 412.01562 349.975Q412.45312 349.74063 413.0625 349.74063Q413.85938 349.74063 414.46875 350.14688Q415.07812 350.55313 415.375 351.30313Q415.6875 352.05313 415.6875 352.94376Q415.6875 353.89688 415.34375 354.6625Q415.01562 355.42813 414.35938 355.83438Q413.70312 356.24063 412.98438 356.24063Q412.45312 356.24063 412.03125 356.02188Q411.60938 355.7875 411.34375 355.45938L411.34375 358.49063L410.29688 358.49063ZM411.25 353.02188Q411.25 354.225 411.73438 354.80313Q412.21875 355.36563 412.90625 355.36563Q413.60938 355.36563 414.10938 354.77188Q414.60938 354.17813 414.60938 352.92813Q414.60938 351.74063 414.125 351.1625Q413.64062 350.56876 412.95312 350.56876Q412.28125 350.56876 411.76562 351.19376Q411.25 351.81876 411.25 353.02188ZM416.875 354.24063L417.90625 354.08438Q418.0 354.70938 418.39062 355.0375Q418.79688 355.36563 419.53125 355.36563Q420.25 355.36563 420.59375 355.08438Q420.95312 354.7875 420.95312 354.38126Q420.95312 354.02188 420.64062 353.81876Q420.42188 353.67813 419.5625 353.45938Q418.40625 353.1625 417.95312 352.95938Q417.51562 352.74063 417.28125 352.36563Q417.04688 351.99063 417.04688 351.52188Q417.04688 351.11563 417.23438 350.75626Q417.42188 350.39688 417.75 350.1625Q418.0 349.99063 418.42188 349.86563Q418.84375 349.74063 419.34375 349.74063Q420.0625 349.74063 420.60938 349.95938Q421.17188 350.1625 421.4375 350.52188Q421.70312 350.88126 421.79688 351.475L420.76562 351.61563Q420.70312 351.14688 420.35938 350.88126Q420.03125 350.6 419.40625 350.6Q418.6875 350.6 418.375 350.85Q418.0625 351.08438 418.0625 351.4125Q418.0625 351.61563 418.1875 351.77188Q418.32812 351.94376 418.59375 352.05313Q418.75 352.11563 419.53125 352.31876Q420.65625 352.63126 421.09375 352.81876Q421.53125 353.00626 421.78125 353.36563Q422.03125 353.725 422.03125 354.27188Q422.03125 354.80313 421.71875 355.27188Q421.42188 355.725 420.84375 355.99063Q420.26562 356.24063 419.53125 356.24063Q418.3125 356.24063 417.67188 355.74063Q417.04688 355.225 416.875 354.24063ZM428.54688 354.1L429.64062 354.225Q429.39062 355.17813 428.6875 355.70938Q427.98438 356.24063 426.90625 356.24063Q425.54688 356.24063 424.73438 355.39688Q423.9375 354.55313 423.9375 353.0375Q423.9375 351.475 424.75 350.61563Q425.5625 349.74063 426.84375 349.74063Q428.09375 349.74063 428.875 350.58438Q429.67188 351.42813 429.67188 352.975Q429.67188 353.06876 429.67188 353.25626L425.03125 353.25626Q425.09375 354.2875 425.60938 354.83438Q426.125 355.36563 426.90625 355.36563Q427.48438 355.36563 427.89062 355.06876Q428.3125 354.75626 428.54688 354.1ZM425.09375 352.39688L428.5625 352.39688Q428.5 351.6 428.17188 351.20938Q427.65625 350.6 426.85938 350.6Q426.125 350.6 425.625 351.08438Q425.14062 351.56876 425.09375 352.39688ZM435.32812 356.1L435.32812 355.31876Q434.73438 356.24063 433.59375 356.24063Q432.84375 356.24063 432.21875 355.83438Q431.59375 355.4125 431.25 354.67813Q430.90625 353.94376 430.90625 352.99063Q430.90625 352.06876 431.21875 351.30313Q431.53125 350.5375 432.15625 350.14688Q432.78125 349.74063 433.54688 349.74063Q434.10938 349.74063 434.54688 349.975Q434.98438 350.20938 435.26562 350.58438L435.26562 347.50626L436.3125 347.50626L436.3125 356.1L435.32812 356.1ZM432.0 352.99063Q432.0 354.19376 432.5 354.7875Q433.0 355.36563 433.6875 355.36563Q434.375 355.36563 434.85938 354.80313Q435.34375 354.24063 435.34375 353.08438Q435.34375 351.80313 434.84375 351.20938Q434.35938 350.61563 433.64062 350.61563Q432.9375 350.61563 432.46875 351.19376Q432.0 351.75626 432.0 352.99063ZM443.60938 356.1L443.60938 348.52188L440.78125 348.52188L440.78125 347.50626L447.59375 347.50626L447.59375 348.52188L444.75 348.52188L444.75 356.1L443.60938 356.1ZM448.29688 348.725L448.29688 347.50626L449.35938 347.50626L449.35938 348.725L448.29688 348.725ZM448.29688 356.1L448.29688 349.88126L449.35938 349.88126L449.35938 356.1L448.29688 356.1ZM451.29688 356.1L451.29688 349.88126L452.23438 349.88126L452.23438 350.75626Q452.53125 350.2875 453.01562 350.02188Q453.5 349.74063 454.125 349.74063Q454.8125 349.74063 455.25 350.02188Q455.70312 350.30313 455.875 350.81876Q456.625 349.74063 457.79688 349.74063Q458.73438 349.74063 459.21875 350.25626Q459.71875 350.75626 459.71875 351.83438L459.71875 356.1L458.67188 356.1L458.67188 352.17813Q458.67188 351.55313 458.5625 351.27188Q458.46875 350.99063 458.20312 350.81876Q457.9375 350.64688 457.5625 350.64688Q456.90625 350.64688 456.46875 351.08438Q456.04688 351.52188 456.04688 352.49063L456.04688 356.1L454.98438 356.1L454.98438 352.05313Q454.98438 351.35 454.71875 351.00626Q454.46875 350.64688 453.89062 350.64688Q453.4375 350.64688 453.0625 350.88126Q452.6875 351.11563 452.51562 351.56876Q452.34375 352.02188 452.34375 352.86563L452.34375 356.1L451.29688 356.1ZM466.54688 354.1L467.64062 354.225Q467.39062 355.17813 466.6875 355.70938Q465.98438 356.24063 464.90625 356.24063Q463.54688 356.24063 462.73438 355.39688Q461.9375 354.55313 461.9375 353.0375Q461.9375 351.475 462.75 350.61563Q463.5625 349.74063 464.84375 349.74063Q466.09375 349.74063 466.875 350.58438Q467.67188 351.42813 467.67188 352.975Q467.67188 353.06876 467.67188 353.25626L463.03125 353.25626Q463.09375 354.2875 463.60938 354.83438Q464.125 355.36563 464.90625 355.36563Q465.48438 355.36563 465.89062 355.06876Q466.3125 354.75626 466.54688 354.1ZM463.09375 352.39688L466.5625 352.39688Q466.5 351.6 466.17188 351.20938Q465.65625 350.6 464.85938 350.6Q464.125 350.6 463.625 351.08438Q463.14062 351.56876 463.09375 352.39688ZM474.3125 358.63126Q473.4375 357.52188 472.82812 356.05313Q472.23438 354.56876 472.23438 352.99063Q472.23438 351.6 472.67188 350.31876Q473.20312 348.83438 474.3125 347.36563L475.0625 347.36563Q474.35938 348.58438 474.125 349.1Q473.76562 349.9125 473.5625 350.7875Q473.3125 351.88126 473.3125 352.99063Q473.3125 355.81876 475.0625 358.63126L474.3125 358.63126ZM476.29688 356.1L476.29688 347.50626L477.34375 347.50626L477.34375 350.58438Q478.07812 349.74063 479.20312 349.74063Q479.90625 349.74063 480.40625 350.02188Q480.92188 350.2875 481.14062 350.77188Q481.35938 351.24063 481.35938 352.1625L481.35938 356.1L480.3125 356.1L480.3125 352.1625Q480.3125 351.36563 479.96875 351.00626Q479.625 350.64688 479.0 350.64688Q478.53125 350.64688 478.10938 350.89688Q477.70312 351.13126 477.51562 351.55313Q477.34375 351.95938 477.34375 352.69376L477.34375 356.1L476.29688 356.1ZM483.29688 356.1L483.29688 347.50626L484.34375 347.50626L484.34375 350.58438Q485.07812 349.74063 486.20312 349.74063Q486.90625 349.74063 487.40625 350.02188Q487.92188 350.2875 488.14062 350.77188Q488.35938 351.24063 488.35938 352.1625L488.35938 356.1L487.3125 356.1L487.3125 352.1625Q487.3125 351.36563 486.96875 351.00626Q486.625 350.64688 486.0 350.64688Q485.53125 350.64688 485.10938 350.89688Q484.70312 351.13126 484.51562 351.55313Q484.34375 351.95938 484.34375 352.69376L484.34375 356.1L483.29688 356.1ZM490.57812 351.08438L490.57812 349.88126L491.78125 349.88126L491.78125 351.08438L490.57812 351.08438ZM490.57812 356.1L490.57812 354.89688L491.78125 354.89688L491.78125 356.1L490.57812 356.1ZM493.29688 356.1L493.29688 349.88126L494.23438 349.88126L494.23438 350.75626Q494.53125 350.2875 495.01562 350.02188Q495.5 349.74063 496.125 349.74063Q496.8125 349.74063 497.25 350.02188Q497.70312 350.30313 497.875 350.81876Q498.625 349.74063 499.79688 349.74063Q500.73438 349.74063 501.21875 350.25626Q501.71875 350.75626 501.71875 351.83438L501.71875 356.1L500.67188 356.1L500.67188 352.17813Q500.67188 351.55313 500.5625 351.27188Q500.46875 350.99063 500.20312 350.81876Q499.9375 350.64688 499.5625 350.64688Q498.90625 350.64688 498.46875 351.08438Q498.04688 351.52188 498.04688 352.49063L498.04688 356.1L496.98438 356.1L496.98438 352.05313Q496.98438 351.35 496.71875 351.00626Q496.46875 350.64688 495.89062 350.64688Q495.4375 350.64688 495.0625 350.88126Q494.6875 351.11563 494.51562 351.56876Q494.34375 352.02188 494.34375 352.86563L494.34375 356.1L493.29688 356.1ZM504.29688 356.1L504.29688 349.88126L505.23438 349.88126L505.23438 350.75626Q505.53125 350.2875 506.01562 350.02188Q506.5 349.74063 507.125 349.74063Q507.8125 349.74063 508.25 350.02188Q508.70312 350.30313 508.875 350.81876Q509.625 349.74063 510.79688 349.74063Q511.73438 349.74063 512.21875 350.25626Q512.71875 350.75626 512.71875 351.83438L512.71875 356.1L511.67188 356.1L511.67188 352.17813Q511.67188 351.55313 511.5625 351.27188Q511.46875 350.99063 511.20312 350.81876Q510.9375 350.64688 510.5625 350.64688Q509.90625 350.64688 509.46875 351.08438Q509.04688 351.52188 509.04688 352.49063L509.04688 356.1L507.98438 356.1L507.98438 352.05313Q507.98438 351.35 507.71875 351.00626Q507.46875 350.64688 506.89062 350.64688Q506.4375 350.64688 506.0625 350.88126Q505.6875 351.11563 505.51562 351.56876Q505.34375 352.02188 505.34375 352.86563L505.34375 356.1L504.29688 356.1ZM515.9844 358.63126L515.2344 358.63126Q516.9844 355.81876 516.9844 352.99063Q516.9844 351.89688 516.7344 350.80313Q516.53125 349.92813 516.1719 349.11563Q515.9375 348.6 515.2344 347.36563L515.9844 347.36563Q517.0781 348.83438 517.6094 350.31876Q518.0625 351.6 518.0625 352.99063Q518.0625 354.56876 517.4531 356.05313Q516.84375 357.52188 515.9844 358.63126Z" fill-rule="nonzero"/><path fill="#000000" d="M29.900005 262.59686L21.306255 262.59686L21.306255 256.39374L22.32188 256.39374L22.32188 261.45624L24.94688 261.45624L24.94688 256.70624L25.962505 256.70624L25.962505 261.45624L28.88438 261.45624L28.88438 256.1906L29.900005 256.1906L29.900005 262.59686ZM29.900005 254.76875L23.681255 254.76875L23.681255 253.81563L24.618755 253.81563Q23.962505 253.45625 23.75938 253.15938Q23.54063 252.84688 23.54063 252.47188Q23.54063 251.94063 23.868755 251.39375L24.85313 251.75313Q24.618755 252.14375 24.618755 252.51875Q24.618755 252.87813 24.837505 253.15938Q25.04063 253.425 25.41563 253.53438Q25.97813 253.72188 26.63438 253.72188L29.900005 253.72188L29.900005 254.76875ZM29.900005 250.76875L23.681255 250.76875L23.681255 249.81563L24.618755 249.81563Q23.962505 249.45625 23.75938 249.15938Q23.54063 248.84688 23.54063 248.47188Q23.54063 247.94063 23.868755 247.39375L24.85313 247.75313Q24.618755 248.14375 24.618755 248.51875Q24.618755 248.87813 24.837505 249.15938Q25.04063 249.425 25.41563 249.53438Q25.97813 249.72188 26.63438 249.72188L29.900005 249.72188L29.900005 250.76875ZM26.79063 247.14375Q25.056255 247.14375 24.22813 246.19063Q23.54063 245.39375 23.54063 244.2375Q23.54063 242.95625 24.38438 242.14375Q25.212505 241.31563 26.69688 241.31563Q27.900005 241.31563 28.587505 241.675Q29.275005 242.03438 29.66563 242.7375Q30.04063 243.425 30.04063 244.2375Q30.04063 245.53438 29.212505 246.34688Q28.368755 247.14375 26.79063 247.14375ZM26.79063 246.06563Q27.97813 246.06563 28.57188 245.55Q29.16563 245.01875 29.16563 244.2375Q29.16563 243.44063 28.57188 242.925Q27.97813 242.40938 26.75938 242.40938Q25.60313 242.40938 25.00938 242.94063Q24.41563 243.45625 24.41563 244.2375Q24.41563 245.01875 25.00938 245.55Q25.587505 246.06563 26.79063 246.06563ZM29.900005 239.76875L23.681255 239.76875L23.681255 238.81563L24.618755 238.81563Q23.962505 238.45625 23.75938 238.15938Q23.54063 237.84688 23.54063 237.47188Q23.54063 236.94063 23.868755 236.39375L24.85313 236.75313Q24.618755 237.14375 24.618755 237.51875Q24.618755 237.87813 24.837505 238.15938Q25.04063 238.425 25.41563 238.53438Q25.97813 238.72188 26.63438 238.72188L29.900005 238.72188L29.900005 239.76875ZM32.431255 230.7375Q31.32188 231.6125 29.85313 232.22188Q28.368755 232.81563 26.79063 232.81563Q25.400005 232.81563 24.118755 232.37813Q22.63438 231.84688 21.16563 230.7375L21.16563 229.9875Q22.38438 230.69063 22.900005 230.925Q23.712505 231.28438 24.587505 231.4875Q25.681255 231.7375 26.79063 231.7375Q29.618755 231.7375 32.431255 229.9875L32.431255 230.7375ZM32.29063 228.75313L23.681255 228.75313L23.681255 227.8L24.47813 227.8Q24.00938 227.45625 23.775005 227.03438Q23.54063 226.59688 23.54063 225.9875Q23.54063 225.19063 23.94688 224.58125Q24.35313 223.97188 25.10313 223.675Q25.85313 223.3625 26.743755 223.3625Q27.69688 223.3625 28.462505 223.70625Q29.22813 224.03438 29.63438 224.69063Q30.04063 225.34688 30.04063 226.06563Q30.04063 226.59688 29.82188 227.01875Q29.587505 227.44063 29.25938 227.70625L32.29063 227.70625L32.29063 228.75313ZM26.82188 227.8Q28.025005 227.8 28.60313 227.31563Q29.16563 226.83125 29.16563 226.14375Q29.16563 225.44063 28.57188 224.94063Q27.97813 224.44063 26.72813 224.44063Q25.54063 224.44063 24.962505 224.925Q24.368755 225.40938 24.368755 226.09688Q24.368755 226.76875 24.993755 227.28438Q25.618755 227.8 26.82188 227.8ZM29.13438 217.69063Q29.63438 218.28438 29.837505 218.83125Q30.04063 219.3625 30.04063 219.9875Q30.04063 221.01875 29.54063 221.56563Q29.04063 222.1125 28.25938 222.1125Q27.806255 222.1125 27.431255 221.90938Q27.04063 221.70625 26.82188 221.3625Q26.587505 221.01875 26.47813 220.59688Q26.38438 220.3 26.306255 219.65938Q26.16563 218.39375 25.94688 217.78438Q25.72813 217.78438 25.681255 217.78438Q25.025005 217.78438 24.75938 218.08125Q24.41563 218.4875 24.41563 219.28438Q24.41563 220.01875 24.681255 220.37813Q24.931255 220.7375 25.587505 220.90938L25.44688 221.94063Q24.79063 221.8 24.38438 221.47188Q23.97813 221.14375 23.75938 220.53438Q23.54063 219.925 23.54063 219.12813Q23.54063 218.33125 23.72813 217.83125Q23.91563 217.33125 24.19688 217.09688Q24.47813 216.8625 24.91563 216.76875Q25.181255 216.72188 25.88438 216.72188L27.29063 216.72188Q28.75938 216.72188 29.150005 216.65938Q29.54063 216.58125 29.900005 216.37813L29.900005 217.4875Q29.57188 217.64375 29.13438 217.69063ZM26.775005 217.78438Q27.00938 218.3625 27.181255 219.50313Q27.275005 220.15938 27.400005 220.425Q27.50938 220.69063 27.72813 220.84688Q27.94688 220.9875 28.22813 220.9875Q28.650005 220.9875 28.931255 220.675Q29.212505 220.34688 29.212505 219.7375Q29.212505 219.12813 28.94688 218.65938Q28.681255 218.175 28.212505 217.95625Q27.85313 217.78438 27.16563 217.78438L26.775005 217.78438ZM29.900005 214.76875L23.681255 214.76875L23.681255 213.81563L24.618755 213.81563Q23.962505 213.45625 23.75938 213.15938Q23.54063 212.84688 23.54063 212.47188Q23.54063 211.94063 23.868755 211.39375L24.85313 211.75313Q24.618755 212.14375 24.618755 212.51875Q24.618755 212.87813 24.837505 213.15938Q25.04063 213.425 25.41563 213.53438Q25.97813 213.72188 26.63438 213.72188L29.900005 213.72188L29.900005 214.76875ZM28.962505 208.45625L29.88438 208.3Q29.97813 208.75313 29.97813 209.09688Q29.97813 209.675 29.806255 209.9875Q29.618755 210.3 29.32188 210.44063Q29.025005 210.56563 28.07188 210.56563L24.493755 210.56563L24.493755 211.33125L23.681255 211.33125L23.681255 210.56563L22.13438 210.56563L21.50938 209.51875L23.681255 209.51875L23.681255 208.45625L24.493755 208.45625L24.493755 209.51875L28.13438 209.51875Q28.587505 209.51875 28.712505 209.47188Q28.837505 209.40938 28.91563 209.28438Q28.993755 209.15938 28.993755 208.925Q28.993755 208.7375 28.962505 208.45625ZM28.04063 208.175L27.88438 207.14375Q28.50938 207.05 28.837505 206.65938Q29.16563 206.25313 29.16563 205.51875Q29.16563 204.8 28.88438 204.45625Q28.587505 204.09688 28.181255 204.09688Q27.82188 204.09688 27.618755 204.40938Q27.47813 204.62813 27.25938 205.4875Q26.962505 206.64375 26.75938 207.09688Q26.54063 207.53438 26.16563 207.76875Q25.79063 208.00313 25.32188 208.00313Q24.91563 208.00313 24.556255 207.81563Q24.19688 207.62813 23.962505 207.3Q23.79063 207.05 23.66563 206.62813Q23.54063 206.20625 23.54063 205.70625Q23.54063 204.9875 23.75938 204.44063Q23.962505 203.87813 24.32188 203.6125Q24.681255 203.34688 25.275005 203.25313L25.41563 204.28438Q24.94688 204.34688 24.681255 204.69063Q24.400005 205.01875 24.400005 205.64375Q24.400005 206.3625 24.650005 206.675Q24.88438 206.9875 25.212505 206.9875Q25.41563 206.9875 25.57188 206.8625Q25.743755 206.72188 25.85313 206.45625Q25.91563 206.3 26.118755 205.51875Q26.431255 204.39375 26.618755 203.95625Q26.806255 203.51875 27.16563 203.26875Q27.525005 203.01875 28.07188 203.01875Q28.60313 203.01875 29.07188 203.33125Q29.525005 203.62813 29.79063 204.20625Q30.04063 204.78438 30.04063 205.51875Q30.04063 206.7375 29.54063 207.37813Q29.025005 208.00313 28.04063 208.175ZM32.29063 197.75313L23.681255 197.75313L23.681255 196.8L24.47813 196.8Q24.00938 196.45625 23.775005 196.03438Q23.54063 195.59688 23.54063 194.9875Q23.54063 194.19063 23.94688 193.58125Q24.35313 192.97188 25.10313 192.675Q25.85313 192.3625 26.743755 192.3625Q27.69688 192.3625 28.462505 192.70625Q29.22813 193.03438 29.63438 193.69063Q30.04063 194.34688 30.04063 195.06563Q30.04063 195.59688 29.82188 196.01875Q29.587505 196.44063 29.25938 196.70625L32.29063 196.70625L32.29063 197.75313ZM26.82188 196.8Q28.025005 196.8 28.60313 196.31563Q29.16563 195.83125 29.16563 195.14375Q29.16563 194.44063 28.57188 193.94063Q27.97813 193.44063 26.72813 193.44063Q25.54063 193.44063 24.962505 193.925Q24.368755 194.40938 24.368755 195.09688Q24.368755 195.76875 24.993755 196.28438Q25.618755 196.8 26.82188 196.8ZM27.900005 186.50313L28.025005 185.40938Q28.97813 185.65938 29.50938 186.3625Q30.04063 187.06563 30.04063 188.14375Q30.04063 189.50313 29.19688 190.31563Q28.35313 191.1125 26.837505 191.1125Q25.275005 191.1125 24.41563 190.3Q23.54063 189.4875 23.54063 188.20625Q23.54063 186.95625 24.38438 186.175Q25.22813 185.37813 26.775005 185.37813Q26.868755 185.37813 27.056255 185.37813L27.056255 190.01875Q28.087505 189.95625 28.63438 189.44063Q29.16563 188.925 29.16563 188.14375Q29.16563 187.56563 28.868755 187.15938Q28.556255 186.7375 27.900005 186.50313ZM26.19688 189.95625L26.19688 186.4875Q25.400005 186.55 25.00938 186.87813Q24.400005 187.39375 24.400005 188.19063Q24.400005 188.925 24.88438 189.425Q25.368755 189.90938 26.19688 189.95625ZM29.900005 183.76875L23.681255 183.76875L23.681255 182.81563L24.618755 182.81563Q23.962505 182.45625 23.75938 182.15938Q23.54063 181.84688 23.54063 181.47188Q23.54063 180.94063 23.868755 180.39375L24.85313 180.75313Q24.618755 181.14375 24.618755 181.51875Q24.618755 181.87813 24.837505 182.15938Q25.04063 182.425 25.41563 182.53438Q25.97813 182.72188 26.63438 182.72188L29.900005 182.72188L29.900005 183.76875ZM29.900005 175.78438L29.900005 176.76875L21.306255 176.76875L21.306255 175.70625L24.368755 175.70625Q23.54063 175.03438 23.54063 174.00313Q23.54063 173.425 23.775005 172.925Q23.993755 172.40938 24.41563 172.08125Q24.837505 171.7375 25.431255 171.55Q26.025005 171.3625 26.69688 171.3625Q28.29063 171.3625 29.16563 172.15938Q30.04063 172.95625 30.04063 174.05Q30.04063 175.15938 29.118755 175.78438L29.900005 175.78438ZM26.743755 175.8Q27.85313 175.8 28.35313 175.4875Q29.16563 174.9875 29.16563 174.14375Q29.16563 173.45625 28.57188 172.95625Q27.97813 172.44063 26.775005 172.44063Q25.556255 172.44063 24.97813 172.925Q24.400005 173.40938 24.400005 174.09688Q24.400005 174.78438 25.00938 175.3Q25.60313 175.8 26.743755 175.8ZM22.525005 169.75313L21.306255 169.75313L21.306255 168.69063L22.525005 168.69063L22.525005 169.75313ZM29.900005 169.75313L23.681255 169.75313L23.681255 168.69063L29.900005 168.69063L29.900005 169.75313ZM29.900005 166.78438L21.306255 166.78438L21.306255 165.72188L29.900005 165.72188L29.900005 166.78438ZM29.900005 163.78438L21.306255 163.78438L21.306255 162.72188L29.900005 162.72188L29.900005 163.78438ZM22.525005 160.75313L21.306255 160.75313L21.306255 159.69063L22.525005 159.69063L22.525005 160.75313ZM29.900005 160.75313L23.681255 160.75313L23.681255 159.69063L29.900005 159.69063L29.900005 160.75313ZM26.79063 158.14375Q25.056255 158.14375 24.22813 157.19063Q23.54063 156.39375 23.54063 155.2375Q23.54063 153.95625 24.38438 153.14375Q25.212505 152.31563 26.69688 152.31563Q27.900005 152.31563 28.587505 152.675Q29.275005 153.03438 29.66563 153.7375Q30.04063 154.425 30.04063 155.2375Q30.04063 156.53438 29.212505 157.34688Q28.368755 158.14375 26.79063 158.14375ZM26.79063 157.06563Q27.97813 157.06563 28.57188 156.55Q29.16563 156.01875 29.16563 155.2375Q29.16563 154.44063 28.57188 153.925Q27.97813 153.40938 26.75938 153.40938Q25.60313 153.40938 25.00938 153.94063Q24.41563 154.45625 24.41563 155.2375Q24.41563 156.01875 25.00938 156.55Q25.587505 157.06563 26.79063 157.06563ZM29.900005 150.75313L23.681255 150.75313L23.681255 149.81563L24.556255 149.81563Q23.54063 149.12813 23.54063 147.83125Q23.54063 147.26875 23.743755 146.8Q23.94688 146.31563 24.275005 146.08125Q24.60313 145.84688 25.04063 145.75313Q25.337505 145.70625 26.07188 145.70625L29.900005 145.70625L29.900005 146.75313L26.118755 146.75313Q25.462505 146.75313 25.150005 146.87813Q24.837505 147.00313 24.650005 147.31563Q24.44688 147.62813 24.44688 148.05Q24.44688 148.72188 24.88438 149.22188Q25.306255 149.70625 26.493755 149.70625L29.900005 149.70625L29.900005 150.75313ZM32.431255 143.06563L32.431255 143.81563Q29.618755 142.06563 26.79063 142.06563Q25.69688 142.06563 24.60313 142.31563Q23.72813 142.51875 22.91563 142.87813Q22.400005 143.1125 21.16563 143.81563L21.16563 143.06563Q22.63438 141.97188 24.118755 141.44063Q25.400005 140.9875 26.79063 140.9875Q28.368755 140.9875 29.85313 141.59688Q31.32188 142.20625 32.431255 143.06563Z" fill-rule="nonzero"/><path fill="#000000" d="M61.275 302.52188L61.275 301.45938L64.525 301.45938L64.525 302.52188L61.275 302.52188ZM65.4 302.85L66.50938 302.75626Q66.63438 303.56876 67.07188 303.975Q67.525 304.38126 68.16563 304.38126Q68.91563 304.38126 69.44688 303.80313Q69.97813 303.225 69.97813 302.2875Q69.97813 301.38126 69.4625 300.86563Q68.9625 300.33438 68.13438 300.33438Q67.63438 300.33438 67.2125 300.56876Q66.80625 300.80313 66.57188 301.1625L65.5875 301.0375L66.41563 296.63126L70.69688 296.63126L70.69688 297.63126L67.25938 297.63126L66.80625 299.94376Q67.57188 299.39688 68.41563 299.39688Q69.54063 299.39688 70.30625 300.17813Q71.0875 300.95938 71.0875 302.19376Q71.0875 303.35 70.41563 304.20938Q69.5875 305.24063 68.16563 305.24063Q66.99375 305.24063 66.24375 304.58438Q65.50938 303.92813 65.4 302.85Z" fill-rule="nonzero"/><path fill="#000000" d="M65.4 257.44562Q65.4 255.91437 65.7125 254.9925Q66.025 254.055 66.63438 253.555Q67.25938 253.055 68.19688 253.055Q68.88438 253.055 69.4 253.33624Q69.93125 253.6175 70.275 254.14874Q70.61875 254.66437 70.80625 255.41437Q70.99375 256.16437 70.99375 257.44562Q70.99375 258.96124 70.68125 259.88312Q70.38438 260.805 69.75938 261.32062Q69.15 261.82062 68.19688 261.82062Q66.9625 261.82062 66.24375 260.93Q65.4 259.8675 65.4 257.44562ZM66.47813 257.44562Q66.47813 259.555 66.97813 260.25812Q67.47813 260.96124 68.19688 260.96124Q68.93125 260.96124 69.41563 260.25812Q69.91563 259.555 69.91563 257.44562Q69.91563 255.32062 69.41563 254.63312Q68.93125 253.93 68.18125 253.93Q67.4625 253.93 67.025 254.53937Q66.47813 255.32062 66.47813 257.44562Z" fill-rule="nonzero"/><path fill="#000000" d="M65.4 216.01L66.50938 215.91624Q66.63438 216.72874 67.07188 217.135Q67.525 217.54124 68.16563 217.54124Q68.91563 217.54124 69.44688 216.96312Q69.97813 216.385 69.97813 215.4475Q69.97813 214.54124 69.4625 214.02562Q68.9625 213.49437 68.13438 213.49437Q67.63438 213.49437 67.2125 213.72874Q66.80625 213.96312 66.57188 214.3225L65.5875 214.1975L66.41563 209.79124L70.69688 209.79124L70.69688 210.79124L67.25938 210.79124L66.80625 213.10374Q67.57188 212.55687 68.41563 212.55687Q69.54063 212.55687 70.30625 213.33812Q71.0875 214.11937 71.0875 215.35374Q71.0875 216.51 70.41563 217.36937Q69.5875 218.40062 68.16563 218.40062Q66.99375 218.40062 66.24375 217.74437Q65.50938 217.08812 65.4 216.01Z" fill-rule="nonzero"/><path fill="#000000" d="M62.36875 174.84L61.321877 174.84L61.321877 168.12125Q60.93125 168.48062 60.30625 168.85562Q59.696877 169.215 59.2125 169.38687L59.2125 168.37125Q60.0875 167.94937 60.74375 167.37125Q61.415627 166.7775 61.696877 166.215L62.36875 166.215L62.36875 174.84ZM65.4 170.60562Q65.4 169.07437 65.7125 168.1525Q66.025 167.215 66.63438 166.715Q67.25938 166.215 68.19688 166.215Q68.88438 166.215 69.4 166.49625Q69.93125 166.7775 70.275 167.30875Q70.61875 167.82437 70.80625 168.57437Q70.99375 169.32437 70.99375 170.60562Q70.99375 172.12125 70.68125 173.04312Q70.38438 173.965 69.75938 174.48062Q69.15 174.98062 68.19688 174.98062Q66.9625 174.98062 66.24375 174.09Q65.4 173.0275 65.4 170.60562ZM66.47813 170.60562Q66.47813 172.715 66.97813 173.41812Q67.47813 174.12125 68.19688 174.12125Q68.93125 174.12125 69.41563 173.41812Q69.91563 172.715 69.91563 170.60562Q69.91563 168.48062 69.41563 167.79312Q68.93125 167.09 68.18125 167.09Q67.4625 167.09 67.025 167.69937Q66.47813 168.48062 66.47813 170.60562Z" fill-rule="nonzero"/><path fill="#000000" d="M62.36875 131.42L61.321877 131.42L61.321877 124.70125Q60.93125 125.06062 60.30625 125.43562Q59.696877 125.795 59.2125 125.96687L59.2125 124.95125Q60.0875 124.52937 60.74375 123.95125Q61.415627 123.3575 61.696877 122.795L62.36875 122.795L62.36875 131.42ZM65.4 129.17L66.50938 129.07625Q66.63438 129.88875 67.07188 130.295Q67.525 130.70125 68.16563 130.70125Q68.91563 130.70125 69.44688 130.12312Q69.97813 129.545 69.97813 128.6075Q69.97813 127.70125 69.4625 127.18562Q68.9625 126.65437 68.13438 126.65437Q67.63438 126.65437 67.2125 126.88875Q66.80625 127.12312 66.57188 127.4825L65.5875 127.3575L66.41563 122.95125L70.69688 122.95125L70.69688 123.95125L67.25938 123.95125L66.80625 126.26375Q67.57188 125.71687 68.41563 125.71687Q69.54063 125.71687 70.30625 126.49812Q71.0875 127.27937 71.0875 128.51375Q71.0875 129.67 70.41563 130.52937Q69.5875 131.56062 68.16563 131.56062Q66.99375 131.56062 66.24375 130.90437Q65.50938 130.24812 65.4 129.17Z" fill-rule="nonzero"/><path fill="#000000" d="M63.946877 86.984375L63.946877 88.0L58.259377 88.0Q58.259377 87.625 58.384377 87.265625Q58.603127 86.6875 59.071877 86.125Q59.55625 85.5625 60.4625 84.828125Q61.86875 83.671875 62.353127 83.0Q62.853127 82.328125 62.853127 81.734375Q62.853127 81.109375 62.4 80.6875Q61.946877 80.25 61.228127 80.25Q60.4625 80.25 60.009377 80.703125Q59.55625 81.15625 59.540627 81.96875L58.4625 81.859375Q58.571877 80.640625 59.290627 80.015625Q60.025 79.375 61.259377 79.375Q62.49375 79.375 63.2125 80.0625Q63.93125 80.75 63.93125 81.765625Q63.93125 82.28125 63.7125 82.78125Q63.509377 83.265625 63.009377 83.828125Q62.525 84.375 61.4 85.328125Q60.446877 86.125 60.165627 86.421875Q59.9 86.703125 59.728127 86.984375L63.946877 86.984375ZM65.4 83.765625Q65.4 82.234375 65.7125 81.3125Q66.025 80.375 66.63438 79.875Q67.25938 79.375 68.19688 79.375Q68.88438 79.375 69.4 79.65625Q69.93125 79.9375 70.275 80.46875Q70.61875 80.984375 70.80625 81.734375Q70.99375 82.484375 70.99375 83.765625Q70.99375 85.28125 70.68125 86.203125Q70.38438 87.125 69.75938 87.640625Q69.15 88.140625 68.19688 88.140625Q66.9625 88.140625 66.24375 87.25Q65.4 86.1875 65.4 83.765625ZM66.47813 83.765625Q66.47813 85.875 66.97813 86.578125Q67.47813 87.28125 68.19688 87.28125Q68.93125 87.28125 69.41563 86.578125Q69.91563 85.875 69.91563 83.765625Q69.91563 81.640625 69.41563 80.953125Q68.93125 80.25 68.18125 80.25Q67.4625 80.25 67.025 80.859375Q66.47813 81.640625 66.47813 83.765625Z" fill-rule="nonzero"/><path fill="#000000" d="M73.09845 319.86563Q73.09845 318.33438 73.41095 317.4125Q73.72345 316.475 74.332825 315.975Q74.957825 315.475 75.895325 315.475Q76.582825 315.475 77.09845 315.75626Q77.6297 316.0375 77.97345 316.56876Q78.3172 317.08438 78.5047 317.83438Q78.6922 318.58438 78.6922 319.86563Q78.6922 321.38126 78.3797 322.30313Q78.082825 323.225 77.457825 323.74063Q76.84845 324.24063 75.895325 324.24063Q74.66095 324.24063 73.9422 323.35Q73.09845 322.2875 73.09845 319.86563ZM74.176575 319.86563Q74.176575 321.975 74.676575 322.67813Q75.176575 323.38126 75.895325 323.38126Q76.6297 323.38126 77.114075 322.67813Q77.614075 321.975 77.614075 319.86563Q77.614075 317.74063 77.114075 317.05313Q76.6297 316.35 75.8797 316.35Q75.16095 316.35 74.72345 316.95938Q74.176575 317.74063 74.176575 319.86563ZM80.09845 319.86563Q80.09845 318.33438 80.41095 317.4125Q80.72345 316.475 81.332825 315.975Q81.957825 315.475 82.895325 315.475Q83.582825 315.475 84.09845 315.75626Q84.6297 316.0375 84.97345 316.56876Q85.3172 317.08438 85.5047 317.83438Q85.6922 318.58438 85.6922 319.86563Q85.6922 321.38126 85.3797 322.30313Q85.082825 323.225 84.457825 323.74063Q83.84845 324.24063 82.895325 324.24063Q81.66095 324.24063 80.9422 323.35Q80.09845 322.2875 80.09845 319.86563ZM81.176575 319.86563Q81.176575 321.975 81.676575 322.67813Q82.176575 323.38126 82.895325 323.38126Q83.6297 323.38126 84.114075 322.67813Q84.614075 321.975 84.614075 319.86563Q84.614075 317.74063 84.114075 317.05313Q83.6297 316.35 82.8797 316.35Q82.16095 316.35 81.72345 316.95938Q81.176575 317.74063 81.176575 319.86563ZM87.676575 319.08438L87.676575 317.88126L88.8797 317.88126L88.8797 319.08438L87.676575 319.08438ZM87.676575 324.1L87.676575 322.89688L88.8797 322.89688L88.8797 324.1L87.676575 324.1ZM90.09845 319.86563Q90.09845 318.33438 90.41095 317.4125Q90.72345 316.475 91.332825 315.975Q91.957825 315.475 92.895325 315.475Q93.582825 315.475 94.09845 315.75626Q94.6297 316.0375 94.97345 316.56876Q95.3172 317.08438 95.5047 317.83438Q95.6922 318.58438 95.6922 319.86563Q95.6922 321.38126 95.3797 322.30313Q95.082825 323.225 94.457825 323.74063Q93.84845 324.24063 92.895325 324.24063Q91.66095 324.24063 90.9422 323.35Q90.09845 322.2875 90.09845 319.86563ZM91.176575 319.86563Q91.176575 321.975 91.676575 322.67813Q92.176575 323.38126 92.895325 323.38126Q93.6297 323.38126 94.114075 322.67813Q94.614075 321.975 94.614075 319.86563Q94.614075 317.74063 94.114075 317.05313Q93.6297 316.35 92.8797 316.35Q92.16095 316.35 91.72345 316.95938Q91.176575 317.74063 91.176575 319.86563ZM97.09845 319.86563Q97.09845 318.33438 97.41095 317.4125Q97.72345 316.475 98.332825 315.975Q98.957825 315.475 99.895325 315.475Q100.582825 315.475 101.09845 315.75626Q101.6297 316.0375 101.97345 316.56876Q102.3172 317.08438 102.5047 317.83438Q102.6922 318.58438 102.6922 319.86563Q102.6922 321.38126 102.3797 322.30313Q102.082825 323.225 101.457825 323.74063Q100.84845 324.24063 99.895325 324.24063Q98.66095 324.24063 97.9422 323.35Q97.09845 322.2875 97.09845 319.86563ZM98.176575 319.86563Q98.176575 321.975 98.676575 322.67813Q99.176575 323.38126 99.895325 323.38126Q100.6297 323.38126 101.114075 322.67813Q101.614075 321.975 101.614075 319.86563Q101.614075 317.74063 101.114075 317.05313Q100.6297 316.35 99.8797 316.35Q99.16095 316.35 98.72345 316.95938Q98.176575 317.74063 98.176575 319.86563Z" fill-rule="nonzero"/><path fill="#000000" d="M281.15137 323.08438L281.15137 324.1L275.46387 324.1Q275.46387 323.725 275.58887 323.36563Q275.80762 322.7875 276.27637 322.225Q276.76074 321.6625 277.667 320.92813Q279.07324 319.77188 279.55762 319.1Q280.05762 318.42813 280.05762 317.83438Q280.05762 317.20938 279.6045 316.7875Q279.15137 316.35 278.43262 316.35Q277.667 316.35 277.21387 316.80313Q276.76074 317.25626 276.74512 318.06876L275.667 317.95938Q275.77637 316.74063 276.49512 316.11563Q277.2295 315.475 278.46387 315.475Q279.69824 315.475 280.417 316.1625Q281.13574 316.85 281.13574 317.86563Q281.13574 318.38126 280.917 318.88126Q280.71387 319.36563 280.21387 319.92813Q279.7295 320.475 278.6045 321.42813Q277.65137 322.225 277.37012 322.52188Q277.1045 322.80313 276.93262 323.08438L281.15137 323.08438ZM285.9795 324.1L285.9795 322.0375L282.26074 322.0375L282.26074 321.06876L286.18262 315.50626L287.042 315.50626L287.042 321.06876L288.19824 321.06876L288.19824 322.0375L287.042 322.0375L287.042 324.1L285.9795 324.1ZM285.9795 321.06876L285.9795 317.20938L283.292 321.06876L285.9795 321.06876ZM290.18262 319.08438L290.18262 317.88126L291.38574 317.88126L291.38574 319.08438L290.18262 319.08438ZM290.18262 324.1L290.18262 322.89688L291.38574 322.89688L291.38574 324.1L290.18262 324.1ZM292.6045 319.86563Q292.6045 318.33438 292.917 317.4125Q293.2295 316.475 293.83887 315.975Q294.46387 315.475 295.40137 315.475Q296.08887 315.475 296.6045 315.75626Q297.13574 316.0375 297.4795 316.56876Q297.82324 317.08438 298.01074 317.83438Q298.19824 318.58438 298.19824 319.86563Q298.19824 321.38126 297.88574 322.30313Q297.58887 323.225 296.96387 323.74063Q296.3545 324.24063 295.40137 324.24063Q294.167 324.24063 293.44824 323.35Q292.6045 322.2875 292.6045 319.86563ZM293.68262 319.86563Q293.68262 321.975 294.18262 322.67813Q294.68262 323.38126 295.40137 323.38126Q296.13574 323.38126 296.62012 322.67813Q297.12012 321.975 297.12012 319.86563Q297.12012 317.74063 296.62012 317.05313Q296.13574 316.35 295.38574 316.35Q294.667 316.35 294.2295 316.95938Q293.68262 317.74063 293.68262 319.86563ZM299.6045 319.86563Q299.6045 318.33438 299.917 317.4125Q300.2295 316.475 300.83887 315.975Q301.46387 315.475 302.40137 315.475Q303.08887 315.475 303.6045 315.75626Q304.13574 316.0375 304.4795 316.56876Q304.82324 317.08438 305.01074 317.83438Q305.19824 318.58438 305.19824 319.86563Q305.19824 321.38126 304.88574 322.30313Q304.58887 323.225 303.96387 323.74063Q303.3545 324.24063 302.40137 324.24063Q301.167 324.24063 300.44824 323.35Q299.6045 322.2875 299.6045 319.86563ZM300.68262 319.86563Q300.68262 321.975 301.18262 322.67813Q301.68262 323.38126 302.40137 323.38126Q303.13574 323.38126 303.62012 322.67813Q304.12012 321.975 304.12012 319.86563Q304.12012 317.74063 303.62012 317.05313Q303.13574 316.35 302.38574 316.35Q301.667 316.35 301.2295 316.95938Q300.68262 317.74063 300.68262 319.86563Z" fill-rule="nonzero"/><path fill="#000000" d="M481.4855 324.1L481.4855 322.0375L477.76675 322.0375L477.76675 321.06876L481.68863 315.50626L482.548 315.50626L482.548 321.06876L483.70425 321.06876L483.70425 322.0375L482.548 322.0375L482.548 324.1L481.4855 324.1ZM481.4855 321.06876L481.4855 317.20938L478.798 321.06876L481.4855 321.06876ZM486.7355 319.44376Q486.07925 319.19376 485.75113 318.75626Q485.43863 318.30313 485.43863 317.69376Q485.43863 316.75626 486.1105 316.11563Q486.798 315.475 487.90738 315.475Q489.03238 315.475 489.71988 316.13126Q490.40738 316.7875 490.40738 317.725Q490.40738 318.31876 490.09488 318.75626Q489.78238 319.19376 489.14175 319.44376Q489.93863 319.69376 490.34488 320.27188Q490.75113 320.85 490.75113 321.64688Q490.75113 322.74063 489.96988 323.49063Q489.20425 324.24063 487.923 324.24063Q486.65738 324.24063 485.87613 323.49063Q485.09488 322.74063 485.09488 321.61563Q485.09488 320.77188 485.51675 320.20938Q485.95425 319.64688 486.7355 319.44376ZM486.51675 317.64688Q486.51675 318.25626 486.90738 318.64688Q487.31363 319.0375 487.93863 319.0375Q488.548 319.0375 488.93863 318.6625Q489.32925 318.27188 489.32925 317.70938Q489.32925 317.13126 488.923 316.74063Q488.51675 316.33438 487.923 316.33438Q487.31363 316.33438 486.90738 316.725Q486.51675 317.11563 486.51675 317.64688ZM486.18863 321.61563Q486.18863 322.06876 486.39175 322.49063Q486.6105 322.9125 487.03238 323.14688Q487.45425 323.38126 487.93863 323.38126Q488.68863 323.38126 489.173 322.89688Q489.673 322.4125 489.673 321.6625Q489.673 320.89688 489.173 320.39688Q488.673 319.89688 487.90738 319.89688Q487.15738 319.89688 486.673 320.39688Q486.18863 320.88126 486.18863 321.61563ZM492.68863 319.08438L492.68863 317.88126L493.89175 317.88126L493.89175 319.08438L492.68863 319.08438ZM492.68863 324.1L492.68863 322.89688L493.89175 322.89688L493.89175 324.1L492.68863 324.1ZM495.1105 319.86563Q495.1105 318.33438 495.423 317.4125Q495.7355 316.475 496.34488 315.975Q496.96988 315.475 497.90738 315.475Q498.59488 315.475 499.1105 315.75626Q499.64175 316.0375 499.9855 316.56876Q500.32925 317.08438 500.51675 317.83438Q500.70425 318.58438 500.70425 319.86563Q500.70425 321.38126 500.39175 322.30313Q500.09488 323.225 499.46988 323.74063Q498.8605 324.24063 497.90738 324.24063Q496.673 324.24063 495.95425 323.35Q495.1105 322.2875 495.1105 319.86563ZM496.18863 319.86563Q496.18863 321.975 496.68863 322.67813Q497.18863 323.38126 497.90738 323.38126Q498.64175 323.38126 499.12613 322.67813Q499.62613 321.975 499.62613 319.86563Q499.62613 317.74063 499.12613 317.05313Q498.64175 316.35 497.89175 316.35Q497.173 316.35 496.7355 316.95938Q496.18863 317.74063 496.18863 319.86563ZM502.1105 319.86563Q502.1105 318.33438 502.423 317.4125Q502.7355 316.475 503.34488 315.975Q503.96988 315.475 504.90738 315.475Q505.59488 315.475 506.1105 315.75626Q506.64175 316.0375 506.9855 316.56876Q507.32925 317.08438 507.51675 317.83438Q507.70425 318.58438 507.70425 319.86563Q507.70425 321.38126 507.39175 322.30313Q507.09488 323.225 506.46988 323.74063Q505.8605 324.24063 504.90738 324.24063Q503.673 324.24063 502.95425 323.35Q502.1105 322.2875 502.1105 319.86563ZM503.18863 319.86563Q503.18863 321.975 503.68863 322.67813Q504.18863 323.38126 504.90738 323.38126Q505.64175 323.38126 506.12613 322.67813Q506.62613 321.975 506.62613 319.86563Q506.62613 317.74063 506.12613 317.05313Q505.64175 316.35 504.89175 316.35Q504.173 316.35 503.7355 316.95938Q503.18863 317.74063 503.18863 319.86563Z" fill-rule="nonzero"/><path fill="#000000" d="M680.679 316.63126L680.679 315.61563L686.2415 315.61563L686.2415 316.44376Q685.429 317.31876 684.6165 318.77188Q683.81964 320.20938 683.38214 321.74063Q683.054 322.81876 682.9759 324.1L681.88214 324.1Q681.89777 323.08438 682.27277 321.64688Q682.6634 320.20938 683.3665 318.88126Q684.08527 317.55313 684.89777 316.63126L680.679 316.63126ZM693.1634 323.08438L693.1634 324.1L687.4759 324.1Q687.4759 323.725 687.6009 323.36563Q687.81964 322.7875 688.2884 322.225Q688.77277 321.6625 689.679 320.92813Q691.08527 319.77188 691.56964 319.1Q692.06964 318.42813 692.06964 317.83438Q692.06964 317.20938 691.6165 316.7875Q691.1634 316.35 690.44464 316.35Q689.679 316.35 689.2259 316.80313Q688.77277 317.25626 688.75714 318.06876L687.679 317.95938Q687.7884 316.74063 688.50714 316.11563Q689.2415 315.475 690.4759 315.475Q691.71027 315.475 692.429 316.1625Q693.14777 316.85 693.14777 317.86563Q693.14777 318.38126 692.929 318.88126Q692.7259 319.36563 692.2259 319.92813Q691.7415 320.475 690.6165 321.42813Q689.6634 322.225 689.38214 322.52188Q689.1165 322.80313 688.94464 323.08438L693.1634 323.08438ZM695.19464 319.08438L695.19464 317.88126L696.39777 317.88126L696.39777 319.08438L695.19464 319.08438ZM695.19464 324.1L695.19464 322.89688L696.39777 322.89688L696.39777 324.1L695.19464 324.1ZM697.6165 319.86563Q697.6165 318.33438 697.929 317.4125Q698.2415 316.475 698.8509 315.975Q699.4759 315.475 700.4134 315.475Q701.1009 315.475 701.6165 315.75626Q702.14777 316.0375 702.4915 316.56876Q702.83527 317.08438 703.02277 317.83438Q703.21027 318.58438 703.21027 319.86563Q703.21027 321.38126 702.89777 322.30313Q702.6009 323.225 701.9759 323.74063Q701.3665 324.24063 700.4134 324.24063Q699.179 324.24063 698.46027 323.35Q697.6165 322.2875 697.6165 319.86563ZM698.69464 319.86563Q698.69464 321.975 699.19464 322.67813Q699.69464 323.38126 700.4134 323.38126Q701.14777 323.38126 701.63214 322.67813Q702.13214 321.975 702.13214 319.86563Q702.13214 317.74063 701.63214 317.05313Q701.14777 316.35 700.39777 316.35Q699.679 316.35 699.2415 316.95938Q698.69464 317.74063 698.69464 319.86563ZM704.6165 319.86563Q704.6165 318.33438 704.929 317.4125Q705.2415 316.475 705.8509 315.975Q706.4759 315.475 707.4134 315.475Q708.1009 315.475 708.6165 315.75626Q709.14777 316.0375 709.4915 316.56876Q709.83527 317.08438 710.02277 317.83438Q710.21027 318.58438 710.21027 319.86563Q710.21027 321.38126 709.89777 322.30313Q709.6009 323.225 708.9759 323.74063Q708.3665 324.24063 707.4134 324.24063Q706.179 324.24063 705.46027 323.35Q704.6165 322.2875 704.6165 319.86563ZM705.69464 319.86563Q705.69464 321.975 706.19464 322.67813Q706.69464 323.38126 707.4134 323.38126Q708.14777 323.38126 708.63214 322.67813Q709.13214 321.975 709.13214 319.86563Q709.13214 317.74063 708.63214 317.05313Q708.14777 316.35 707.39777 316.35Q706.679 316.35 706.2415 316.95938Q705.69464 317.74063 705.69464 319.86563Z" fill-rule="nonzero"/><path fill="#999999" d="M344.85938 59.11875L345.89062 59.259377Q345.71875 60.321877 345.01562 60.93125Q344.3125 61.540627 343.29688 61.540627Q342.01562 61.540627 341.23438 60.7125Q340.46875 59.86875 340.46875 58.30625Q340.46875 57.30625 340.79688 56.55625Q341.14062 55.790627 341.8125 55.415627Q342.5 55.040627 343.3125 55.040627Q344.3125 55.040627 344.95312 55.55625Q345.60938 56.05625 345.79688 57.009377L344.76562 57.165627Q344.625 56.540627 344.25 56.228127Q343.875 55.9 343.34375 55.9Q342.54688 55.9 342.04688 56.478127Q341.54688 57.040627 341.54688 58.275Q341.54688 59.540627 342.03125 60.103127Q342.51562 60.665627 343.28125 60.665627Q343.90625 60.665627 344.3125 60.290627Q344.73438 59.915627 344.85938 59.11875ZM346.40625 58.290627Q346.40625 56.55625 347.35938 55.728127Q348.15625 55.040627 349.3125 55.040627Q350.59375 55.040627 351.40625 55.884377Q352.23438 56.7125 352.23438 58.196877Q352.23438 59.4 351.875 60.0875Q351.51562 60.775 350.8125 61.165627Q350.125 61.540627 349.3125 61.540627Q348.01562 61.540627 347.20312 60.7125Q346.40625 59.86875 346.40625 58.290627ZM347.48438 58.290627Q347.48438 59.478127 348.0 60.071877Q348.53125 60.665627 349.3125 60.665627Q350.10938 60.665627 350.625 60.071877Q351.14062 59.478127 351.14062 58.259377Q351.14062 57.103127 350.60938 56.509377Q350.09375 55.915627 349.3125 55.915627Q348.53125 55.915627 348.0 56.509377Q347.48438 57.0875 347.48438 58.290627ZM353.76562 61.4L353.76562 52.80625L354.82812 52.80625L354.82812 61.4L353.76562 61.4ZM360.82812 61.4L360.82812 60.61875Q360.23438 61.540627 359.09375 61.540627Q358.34375 61.540627 357.71875 61.134377Q357.09375 60.7125 356.75 59.978127Q356.40625 59.24375 356.40625 58.290627Q356.40625 57.36875 356.71875 56.603127Q357.03125 55.8375 357.65625 55.446877Q358.28125 55.040627 359.04688 55.040627Q359.60938 55.040627 360.04688 55.275Q360.48438 55.509377 360.76562 55.884377L360.76562 52.80625L361.8125 52.80625L361.8125 61.4L360.82812 61.4ZM357.5 58.290627Q357.5 59.49375 358.0 60.0875Q358.5 60.665627 359.1875 60.665627Q359.875 60.665627 360.35938 60.103127Q360.84375 59.540627 360.84375 58.384377Q360.84375 57.103127 360.34375 56.509377Q359.85938 55.915627 359.14062 55.915627Q358.4375 55.915627 357.96875 56.49375Q357.5 57.05625 357.5 58.290627ZM366.375 59.540627L367.40625 59.384377Q367.5 60.009377 367.89062 60.3375Q368.29688 60.665627 369.03125 60.665627Q369.75 60.665627 370.09375 60.384377Q370.45312 60.0875 370.45312 59.68125Q370.45312 59.321877 370.14062 59.11875Q369.92188 58.978127 369.0625 58.759377Q367.90625 58.4625 367.45312 58.259377Q367.01562 58.040627 366.78125 57.665627Q366.54688 57.290627 366.54688 56.821877Q366.54688 56.415627 366.73438 56.05625Q366.92188 55.696877 367.25 55.4625Q367.5 55.290627 367.92188 55.165627Q368.34375 55.040627 368.84375 55.040627Q369.5625 55.040627 370.10938 55.259377Q370.67188 55.4625 370.9375 55.821877Q371.20312 56.18125 371.29688 56.775L370.26562 56.915627Q370.20312 56.446877 369.85938 56.18125Q369.53125 55.9 368.90625 55.9Q368.1875 55.9 367.875 56.15Q367.5625 56.384377 367.5625 56.7125Q367.5625 56.915627 367.6875 57.071877Q367.82812 57.24375 368.09375 57.353127Q368.25 57.415627 369.03125 57.61875Q370.15625 57.93125 370.59375 58.11875Q371.03125 58.30625 371.28125 58.665627Q371.53125 59.025 371.53125 59.571877Q371.53125 60.103127 371.21875 60.571877Q370.92188 61.025 370.34375 61.290627Q369.76562 61.540627 369.03125 61.540627Q367.8125 61.540627 367.17188 61.040627Q366.54688 60.525 366.375 59.540627ZM376.09375 60.4625L376.25 61.384377Q375.79688 61.478127 375.45312 61.478127Q374.875 61.478127 374.5625 61.30625Q374.25 61.11875 374.10938 60.821877Q373.98438 60.525 373.98438 59.571877L373.98438 55.99375L373.21875 55.99375L373.21875 55.18125L373.98438 55.18125L373.98438 53.634377L375.03125 53.009377L375.03125 55.18125L376.09375 55.18125L376.09375 55.99375L375.03125 55.99375L375.03125 59.634377Q375.03125 60.0875 375.07812 60.2125Q375.14062 60.3375 375.26562 60.415627Q375.39062 60.49375 375.625 60.49375Q375.8125 60.49375 376.09375 60.4625ZM380.85938 60.634377Q380.26562 61.134377 379.71875 61.3375Q379.1875 61.540627 378.5625 61.540627Q377.53125 61.540627 376.98438 61.040627Q376.4375 60.540627 376.4375 59.759377Q376.4375 59.30625 376.64062 58.93125Q376.84375 58.540627 377.1875 58.321877Q377.53125 58.0875 377.95312 57.978127Q378.25 57.884377 378.89062 57.80625Q380.15625 57.665627 380.76562 57.446877Q380.76562 57.228127 380.76562 57.18125Q380.76562 56.525 380.46875 56.259377Q380.0625 55.915627 379.26562 55.915627Q378.53125 55.915627 378.17188 56.18125Q377.8125 56.43125 377.64062 57.0875L376.60938 56.946877Q376.75 56.290627 377.07812 55.884377Q377.40625 55.478127 378.01562 55.259377Q378.625 55.040627 379.42188 55.040627Q380.21875 55.040627 380.71875 55.228127Q381.21875 55.415627 381.45312 55.696877Q381.6875 55.978127 381.78125 56.415627Q381.82812 56.68125 381.82812 57.384377L381.82812 58.790627Q381.82812 60.259377 381.89062 60.65Q381.96875 61.040627 382.17188 61.4L381.0625 61.4Q380.90625 61.071877 380.85938 60.634377ZM380.76562 58.275Q380.1875 58.509377 379.04688 58.68125Q378.39062 58.775 378.125 58.9Q377.85938 59.009377 377.70312 59.228127Q377.5625 59.446877 377.5625 59.728127Q377.5625 60.15 377.875 60.43125Q378.20312 60.7125 378.8125 60.7125Q379.42188 60.7125 379.89062 60.446877Q380.375 60.18125 380.59375 59.7125Q380.76562 59.353127 380.76562 58.665627L380.76562 58.275ZM383.78125 61.4L383.78125 55.18125L384.73438 55.18125L384.73438 56.11875Q385.09375 55.4625 385.39062 55.259377Q385.70312 55.040627 386.07812 55.040627Q386.60938 55.040627 387.15625 55.36875L386.79688 56.353127Q386.40625 56.11875 386.03125 56.11875Q385.67188 56.11875 385.39062 56.3375Q385.125 56.540627 385.01562 56.915627Q384.82812 57.478127 384.82812 58.134377L384.82812 61.4L383.78125 61.4ZM390.09375 60.4625L390.25 61.384377Q389.79688 61.478127 389.45312 61.478127Q388.875 61.478127 388.5625 61.30625Q388.25 61.11875 388.10938 60.821877Q387.98438 60.525 387.98438 59.571877L387.98438 55.99375L387.21875 55.99375L387.21875 55.18125L387.98438 55.18125L387.98438 53.634377L389.03125 53.009377L389.03125 55.18125L390.09375 55.18125L390.09375 55.99375L389.03125 55.99375L389.03125 59.634377Q389.03125 60.0875 389.07812 60.2125Q389.14062 60.3375 389.26562 60.415627Q389.39062 60.49375 389.625 60.49375Q389.8125 60.49375 390.09375 60.4625ZM391.0625 56.384377L391.0625 55.18125L392.26562 55.18125L392.26562 56.384377L391.0625 56.384377ZM391.0625 61.4L391.0625 60.196877L392.26562 60.196877L392.26562 61.4Q392.26562 62.05625 392.03125 62.4625Q391.79688 62.884377 391.29688 63.103127L391.0 62.65Q391.32812 62.509377 391.48438 62.2125Q391.64062 61.93125 391.67188 61.4L391.0625 61.4ZM396.40625 58.290627Q396.40625 56.55625 397.35938 55.728127Q398.15625 55.040627 399.3125 55.040627Q400.59375 55.040627 401.40625 55.884377Q402.23438 56.7125 402.23438 58.196877Q402.23438 59.4 401.875 60.0875Q401.51562 60.775 400.8125 61.165627Q400.125 61.540627 399.3125 61.540627Q398.01562 61.540627 397.20312 60.7125Q396.40625 59.86875 396.40625 58.290627ZM397.48438 58.290627Q397.48438 59.478127 398.0 60.071877Q398.53125 60.665627 399.3125 60.665627Q400.10938 60.665627 400.625 60.071877Q401.14062 59.478127 401.14062 58.259377Q401.14062 57.103127 400.60938 56.509377Q400.09375 55.915627 399.3125 55.915627Q398.53125 55.915627 398.0 56.509377Q397.48438 57.0875 397.48438 58.290627ZM405.51562 61.4L403.15625 55.18125L404.26562 55.18125L405.60938 58.9Q405.8125 59.509377 406.0 60.15Q406.14062 59.665627 406.39062 58.978127L407.78125 55.18125L408.85938 55.18125L406.5 61.4L405.51562 61.4ZM413.04688 59.4L414.14062 59.525Q413.89062 60.478127 413.1875 61.009377Q412.48438 61.540627 411.40625 61.540627Q410.04688 61.540627 409.23438 60.696877Q408.4375 59.853127 408.4375 58.3375Q408.4375 56.775 409.25 55.915627Q410.0625 55.040627 411.34375 55.040627Q412.59375 55.040627 413.375 55.884377Q414.17188 56.728127 414.17188 58.275Q414.17188 58.36875 414.17188 58.55625L409.53125 58.55625Q409.59375 59.5875 410.10938 60.134377Q410.625 60.665627 411.40625 60.665627Q411.98438 60.665627 412.39062 60.36875Q412.8125 60.05625 413.04688 59.4ZM409.59375 57.696877L413.0625 57.696877Q413.0 56.9 412.67188 56.509377Q412.15625 55.9 411.35938 55.9Q410.625 55.9 410.125 56.384377Q409.64062 56.86875 409.59375 57.696877ZM415.79688 61.4L415.79688 55.18125L416.73438 55.18125L416.73438 56.05625Q417.42188 55.040627 418.71875 55.040627Q419.28125 55.040627 419.75 55.24375Q420.23438 55.446877 420.46875 55.775Q420.70312 56.103127 420.79688 56.540627Q420.84375 56.8375 420.84375 57.571877L420.84375 61.4L419.79688 61.4L419.79688 57.61875Q419.79688 56.9625 419.67188 56.65Q419.54688 56.3375 419.23438 56.15Q418.92188 55.946877 418.5 55.946877Q417.82812 55.946877 417.32812 56.384377Q416.84375 56.80625 416.84375 57.99375L416.84375 61.4L415.79688 61.4ZM429.85938 60.634377Q429.26562 61.134377 428.71875 61.3375Q428.1875 61.540627 427.5625 61.540627Q426.53125 61.540627 425.98438 61.040627Q425.4375 60.540627 425.4375 59.759377Q425.4375 59.30625 425.64062 58.93125Q425.84375 58.540627 426.1875 58.321877Q426.53125 58.0875 426.95312 57.978127Q427.25 57.884377 427.89062 57.80625Q429.15625 57.665627 429.76562 57.446877Q429.76562 57.228127 429.76562 57.18125Q429.76562 56.525 429.46875 56.259377Q429.0625 55.915627 428.26562 55.915627Q427.53125 55.915627 427.17188 56.18125Q426.8125 56.43125 426.64062 57.0875L425.60938 56.946877Q425.75 56.290627 426.07812 55.884377Q426.40625 55.478127 427.01562 55.259377Q427.625 55.040627 428.42188 55.040627Q429.21875 55.040627 429.71875 55.228127Q430.21875 55.415627 430.45312 55.696877Q430.6875 55.978127 430.78125 56.415627Q430.82812 56.68125 430.82812 57.384377L430.82812 58.790627Q430.82812 60.259377 430.89062 60.65Q430.96875 61.040627 431.17188 61.4L430.0625 61.4Q429.90625 61.071877 429.85938 60.634377ZM429.76562 58.275Q429.1875 58.509377 428.04688 58.68125Q427.39062 58.775 427.125 58.9Q426.85938 59.009377 426.70312 59.228127Q426.5625 59.446877 426.5625 59.728127Q426.5625 60.15 426.875 60.43125Q427.20312 60.7125 427.8125 60.7125Q428.42188 60.7125 428.89062 60.446877Q429.375 60.18125 429.59375 59.7125Q429.76562 59.353127 429.76562 58.665627L429.76562 58.275ZM435.09375 60.4625L435.25 61.384377Q434.79688 61.478127 434.45312 61.478127Q433.875 61.478127 433.5625 61.30625Q433.25 61.11875 433.10938 60.821877Q432.98438 60.525 432.98438 59.571877L432.98438 55.99375L432.21875 55.99375L432.21875 55.18125L432.98438 55.18125L432.98438 53.634377L434.03125 53.009377L434.03125 55.18125L435.09375 55.18125L435.09375 55.99375L434.03125 55.99375L434.03125 59.634377Q434.03125 60.0875 434.07812 60.2125Q434.14062 60.3375 434.26562 60.415627Q434.39062 60.49375 434.625 60.49375Q434.8125 60.49375 435.09375 60.4625ZM441.09375 60.4625L441.25 61.384377Q440.79688 61.478127 440.45312 61.478127Q439.875 61.478127 439.5625 61.30625Q439.25 61.11875 439.10938 60.821877Q438.98438 60.525 438.98438 59.571877L438.98438 55.99375L438.21875 55.99375L438.21875 55.18125L438.98438 55.18125L438.98438 53.634377L440.03125 53.009377L440.03125 55.18125L441.09375 55.18125L441.09375 55.99375L440.03125 55.99375L440.03125 59.634377Q440.03125 60.0875 440.07812 60.2125Q440.14062 60.3375 440.26562 60.415627Q440.39062 60.49375 440.625 60.49375Q440.8125 60.49375 441.09375 60.4625ZM446.04688 59.4L447.14062 59.525Q446.89062 60.478127 446.1875 61.009377Q445.48438 61.540627 444.40625 61.540627Q443.04688 61.540627 442.23438 60.696877Q441.4375 59.853127 441.4375 58.3375Q441.4375 56.775 442.25 55.915627Q443.0625 55.040627 444.34375 55.040627Q445.59375 55.040627 446.375 55.884377Q447.17188 56.728127 447.17188 58.275Q447.17188 58.36875 447.17188 58.55625L442.53125 58.55625Q442.59375 59.5875 443.10938 60.134377Q443.625 60.665627 444.40625 60.665627Q444.98438 60.665627 445.39062 60.36875Q445.8125 60.05625 446.04688 59.4ZM442.59375 57.696877L446.0625 57.696877Q446.0 56.9 445.67188 56.509377Q445.15625 55.9 444.35938 55.9Q443.625 55.9 443.125 56.384377Q442.64062 56.86875 442.59375 57.696877ZM448.79688 61.4L448.79688 55.18125L449.73438 55.18125L449.73438 56.05625Q450.03125 55.5875 450.51562 55.321877Q451.0 55.040627 451.625 55.040627Q452.3125 55.040627 452.75 55.321877Q453.20312 55.603127 453.375 56.11875Q454.125 55.040627 455.29688 55.040627Q456.23438 55.040627 456.71875 55.55625Q457.21875 56.05625 457.21875 57.134377L457.21875 61.4L456.17188 61.4L456.17188 57.478127Q456.17188 56.853127 456.0625 56.571877Q455.96875 56.290627 455.70312 56.11875Q455.4375 55.946877 455.0625 55.946877Q454.40625 55.946877 453.96875 56.384377Q453.54688 56.821877 453.54688 57.790627L453.54688 61.4L452.48438 61.4L452.48438 57.353127Q452.48438 56.65 452.21875 56.30625Q451.96875 55.946877 451.39062 55.946877Q450.9375 55.946877 450.5625 56.18125Q450.1875 56.415627 450.01562 56.86875Q449.84375 57.321877 449.84375 58.165627L449.84375 61.4L448.79688 61.4ZM459.79688 63.790627L459.79688 55.18125L460.75 55.18125L460.75 55.978127Q461.09375 55.509377 461.51562 55.275Q461.95312 55.040627 462.5625 55.040627Q463.35938 55.040627 463.96875 55.446877Q464.57812 55.853127 464.875 56.603127Q465.1875 57.353127 465.1875 58.24375Q465.1875 59.196877 464.84375 59.9625Q464.51562 60.728127 463.85938 61.134377Q463.20312 61.540627 462.48438 61.540627Q461.95312 61.540627 461.53125 61.321877Q461.10938 61.0875 460.84375 60.759377L460.84375 63.790627L459.79688 63.790627ZM460.75 58.321877Q460.75 59.525 461.23438 60.103127Q461.71875 60.665627 462.40625 60.665627Q463.10938 60.665627 463.60938 60.071877Q464.10938 59.478127 464.10938 58.228127Q464.10938 57.040627 463.625 56.4625Q463.14062 55.86875 462.45312 55.86875Q461.78125 55.86875 461.26562 56.49375Q460.75 57.11875 460.75 58.321877ZM471.04688 59.4L472.14062 59.525Q471.89062 60.478127 471.1875 61.009377Q470.48438 61.540627 469.40625 61.540627Q468.04688 61.540627 467.23438 60.696877Q466.4375 59.853127 466.4375 58.3375Q466.4375 56.775 467.25 55.915627Q468.0625 55.040627 469.34375 55.040627Q470.59375 55.040627 471.375 55.884377Q472.17188 56.728127 472.17188 58.275Q472.17188 58.36875 472.17188 58.55625L467.53125 58.55625Q467.59375 59.5875 468.10938 60.134377Q468.625 60.665627 469.40625 60.665627Q469.98438 60.665627 470.39062 60.36875Q470.8125 60.05625 471.04688 59.4ZM467.59375 57.696877L471.0625 57.696877Q471.0 56.9 470.67188 56.509377Q470.15625 55.9 469.35938 55.9Q468.625 55.9 468.125 56.384377Q467.64062 56.86875 467.59375 57.696877ZM473.78125 61.4L473.78125 55.18125L474.73438 55.18125L474.73438 56.11875Q475.09375 55.4625 475.39062 55.259377Q475.70312 55.040627 476.07812 55.040627Q476.60938 55.040627 477.15625 55.36875L476.79688 56.353127Q476.40625 56.11875 476.03125 56.11875Q475.67188 56.11875 475.39062 56.3375Q475.125 56.540627 475.01562 56.915627Q474.82812 57.478127 474.82812 58.134377L474.82812 61.4L473.78125 61.4ZM481.85938 60.634377Q481.26562 61.134377 480.71875 61.3375Q480.1875 61.540627 479.5625 61.540627Q478.53125 61.540627 477.98438 61.040627Q477.4375 60.540627 477.4375 59.759377Q477.4375 59.30625 477.64062 58.93125Q477.84375 58.540627 478.1875 58.321877Q478.53125 58.0875 478.95312 57.978127Q479.25 57.884377 479.89062 57.80625Q481.15625 57.665627 481.76562 57.446877Q481.76562 57.228127 481.76562 57.18125Q481.76562 56.525 481.46875 56.259377Q481.0625 55.915627 480.26562 55.915627Q479.53125 55.915627 479.17188 56.18125Q478.8125 56.43125 478.64062 57.0875L477.60938 56.946877Q477.75 56.290627 478.07812 55.884377Q478.40625 55.478127 479.01562 55.259377Q479.625 55.040627 480.42188 55.040627Q481.21875 55.040627 481.71875 55.228127Q482.21875 55.415627 482.45312 55.696877Q482.6875 55.978127 482.78125 56.415627Q482.82812 56.68125 482.82812 57.384377L482.82812 58.790627Q482.82812 60.259377 482.89062 60.65Q482.96875 61.040627 483.17188 61.4L482.0625 61.4Q481.90625 61.071877 481.85938 60.634377ZM481.76562 58.275Q481.1875 58.509377 480.04688 58.68125Q479.39062 58.775 479.125 58.9Q478.85938 59.009377 478.70312 59.228127Q478.5625 59.446877 478.5625 59.728127Q478.5625 60.15 478.875 60.43125Q479.20312 60.7125 479.8125 60.7125Q480.42188 60.7125 480.89062 60.446877Q481.375 60.18125 481.59375 59.7125Q481.76562 59.353127 481.76562 58.665627L481.76562 58.275ZM487.09375 60.4625L487.25 61.384377Q486.79688 61.478127 486.45312 61.478127Q485.875 61.478127 485.5625 61.30625Q485.25 61.11875 485.10938 60.821877Q484.98438 60.525 484.98438 59.571877L484.98438 55.99375L484.21875 55.99375L484.21875 55.18125L484.98438 55.18125L484.98438 53.634377L486.03125 53.009377L486.03125 55.18125L487.09375 55.18125L487.09375 55.99375L486.03125 55.99375L486.03125 59.634377Q486.03125 60.0875 486.07812 60.2125Q486.14062 60.3375 486.26562 60.415627Q486.39062 60.49375 486.625 60.49375Q486.8125 60.49375 487.09375 60.4625ZM491.875 61.4L491.875 60.478127Q491.14062 61.540627 489.89062 61.540627Q489.34375 61.540627 488.85938 61.3375Q488.39062 61.11875 488.15625 60.80625Q487.92188 60.478127 487.82812 60.009377Q487.76562 59.7125 487.76562 59.025L487.76562 55.18125L488.82812 55.18125L488.82812 58.634377Q488.82812 59.446877 488.89062 59.74375Q488.98438 60.15 489.29688 60.4Q489.625 60.634377 490.10938 60.634377Q490.57812 60.634377 490.98438 60.4Q491.40625 60.15 491.57812 59.728127Q491.76562 59.30625 491.76562 58.509377L491.76562 55.18125L492.8125 55.18125L492.8125 61.4L491.875 61.4ZM494.78125 61.4L494.78125 55.18125L495.73438 55.18125L495.73438 56.11875Q496.09375 55.4625 496.39062 55.259377Q496.70312 55.040627 497.07812 55.040627Q497.60938 55.040627 498.15625 55.36875L497.79688 56.353127Q497.40625 56.11875 497.03125 56.11875Q496.67188 56.11875 496.39062 56.3375Q496.125 56.540627 496.01562 56.915627Q495.82812 57.478127 495.82812 58.134377L495.82812 61.4L494.78125 61.4ZM503.04688 59.4L504.14062 59.525Q503.89062 60.478127 503.1875 61.009377Q502.48438 61.540627 501.40625 61.540627Q500.04688 61.540627 499.23438 60.696877Q498.4375 59.853127 498.4375 58.3375Q498.4375 56.775 499.25 55.915627Q500.0625 55.040627 501.34375 55.040627Q502.59375 55.040627 503.375 55.884377Q504.17188 56.728127 504.17188 58.275Q504.17188 58.36875 504.17188 58.55625L499.53125 58.55625Q499.59375 59.5875 500.10938 60.134377Q500.625 60.665627 501.40625 60.665627Q501.98438 60.665627 502.39062 60.36875Q502.8125 60.05625 503.04688 59.4ZM499.59375 57.696877L503.0625 57.696877Q503.0 56.9 502.67188 56.509377Q502.15625 55.9 501.35938 55.9Q500.625 55.9 500.125 56.384377Q499.64062 56.86875 499.59375 57.696877Z" fill-rule="nonzero"/><path fill="#757575" d="M322.35938 37.9L322.35938 23.587502L324.26562 23.587502L324.26562 37.9L322.35938 37.9ZM327.10938 34.80625L328.85938 34.525Q329.0 35.571877 329.67188 36.134377Q330.34375 36.68125 331.54688 36.68125Q332.75 36.68125 333.32812 36.196877Q333.92188 35.696877 333.92188 35.040627Q333.92188 34.446877 333.40625 34.103127Q333.04688 33.86875 331.60938 33.509377Q329.67188 33.009377 328.92188 32.665627Q328.1875 32.30625 327.79688 31.681252Q327.40625 31.040627 327.40625 30.275002Q327.40625 29.587502 327.71875 28.993752Q328.04688 28.400002 328.59375 28.009377Q329.0 27.712502 329.70312 27.509377Q330.42188 27.290627 331.23438 27.290627Q332.45312 27.290627 333.375 27.650002Q334.29688 27.993752 334.73438 28.603127Q335.17188 29.196877 335.34375 30.196877L333.625 30.431252Q333.5 29.634377 332.9375 29.196877Q332.375 28.743752 331.35938 28.743752Q330.14062 28.743752 329.625 29.150002Q329.10938 29.540627 329.10938 30.071877Q329.10938 30.415627 329.32812 30.696877Q329.53125 30.978127 330.0 31.165627Q330.26562 31.259377 331.54688 31.603127Q333.42188 32.103127 334.15625 32.43125Q334.89062 32.74375 335.3125 33.353127Q335.73438 33.946877 335.73438 34.853127Q335.73438 35.728127 335.21875 36.509377Q334.70312 37.290627 333.73438 37.7125Q332.76562 38.134377 331.54688 38.134377Q329.53125 38.134377 328.46875 37.290627Q327.40625 36.446877 327.10938 34.80625ZM337.17188 32.7125Q337.17188 29.837502 338.76562 28.446877Q340.10938 27.290627 342.03125 27.290627Q344.17188 27.290627 345.51562 28.696877Q346.875 30.103127 346.875 32.571877Q346.875 34.571877 346.28125 35.728127Q345.6875 36.86875 344.53125 37.509377Q343.39062 38.134377 342.03125 38.134377Q339.84375 38.134377 338.5 36.74375Q337.17188 35.3375 337.17188 32.7125ZM338.96875 32.7125Q338.96875 34.7125 339.82812 35.696877Q340.70312 36.68125 342.03125 36.68125Q343.34375 36.68125 344.20312 35.696877Q345.07812 34.696877 345.07812 32.65Q345.07812 30.728127 344.20312 29.743752Q343.32812 28.743752 342.03125 28.743752Q340.70312 28.743752 339.82812 29.743752Q338.96875 30.728127 338.96875 32.7125ZM352.65625 36.321877L352.90625 37.884377Q352.17188 38.040627 351.57812 38.040627Q350.625 38.040627 350.09375 37.74375Q349.57812 37.43125 349.35938 36.946877Q349.14062 36.446877 349.14062 34.86875L349.14062 28.900002L347.85938 28.900002L347.85938 27.525002L349.14062 27.525002L349.14062 24.962502L350.89062 23.900002L350.89062 27.525002L352.65625 27.525002L352.65625 28.900002L350.89062 28.900002L350.89062 34.9625Q350.89062 35.7125 350.98438 35.93125Q351.07812 36.134377 351.28125 36.275Q351.5 36.4 351.89062 36.4Q352.17188 36.4 352.65625 36.321877ZM361.92188 34.55625L363.73438 34.790627Q363.3125 36.36875 362.14062 37.259377Q360.98438 38.134377 359.17188 38.134377Q356.90625 38.134377 355.5625 36.74375Q354.23438 35.3375 354.23438 32.80625Q354.23438 30.181252 355.57812 28.743752Q356.92188 27.290627 359.07812 27.290627Q361.15625 27.290627 362.46875 28.712502Q363.79688 30.118752 363.79688 32.696877Q363.79688 32.853127 363.78125 33.165627L356.04688 33.165627Q356.14062 34.86875 357.01562 35.775Q357.89062 36.68125 359.1875 36.68125Q360.15625 36.68125 360.82812 36.18125Q361.51562 35.665627 361.92188 34.55625ZM356.14062 31.712502L361.9375 31.712502Q361.82812 30.415627 361.28125 29.759377Q360.4375 28.743752 359.09375 28.743752Q357.89062 28.743752 357.0625 29.556252Q356.23438 30.353127 356.14062 31.712502ZM365.8125 37.9L365.8125 27.525002L367.39062 27.525002L367.39062 28.978127Q367.875 28.228127 368.6875 27.759377Q369.5 27.290627 370.53125 27.290627Q371.6875 27.290627 372.42188 27.775002Q373.15625 28.243752 373.46875 29.103127Q374.70312 27.290627 376.67188 27.290627Q378.21875 27.290627 379.04688 28.150002Q379.875 29.009377 379.875 30.775002L379.875 37.9L378.125 37.9L378.125 31.368752Q378.125 30.306252 377.95312 29.853127Q377.78125 29.384377 377.32812 29.103127Q376.89062 28.821877 376.28125 28.821877Q375.1875 28.821877 374.45312 29.556252Q373.73438 30.275002 373.73438 31.868752L373.73438 37.9L371.98438 37.9L371.98438 31.165627Q371.98438 29.993752 371.54688 29.415627Q371.125 28.821877 370.14062 28.821877Q369.40625 28.821877 368.76562 29.212502Q368.14062 29.603127 367.85938 30.353127Q367.57812 31.103127 367.57812 32.525L367.57812 37.9L365.8125 37.9ZM381.8125 41.86875L381.8125 27.525002L383.42188 27.525002L383.42188 28.868752Q383.98438 28.087502 384.6875 27.696877Q385.40625 27.290627 386.42188 27.290627Q387.75 27.290627 388.76562 27.978127Q389.78125 28.665627 390.29688 29.915627Q390.82812 31.150002 390.82812 32.634377Q390.82812 34.228127 390.25 35.509377Q389.6875 36.775 388.59375 37.4625Q387.5 38.134377 386.29688 38.134377Q385.42188 38.134377 384.71875 37.759377Q384.03125 37.384377 383.57812 36.821877L383.57812 41.86875L381.8125 41.86875ZM383.40625 32.775Q383.40625 34.775 384.21875 35.728127Q385.03125 36.68125 386.1875 36.68125Q387.35938 36.68125 388.1875 35.696877Q389.03125 34.7125 389.03125 32.61875Q389.03125 30.650002 388.20312 29.665627Q387.39062 28.665627 386.26562 28.665627Q385.14062 28.665627 384.26562 29.728127Q383.40625 30.775002 383.40625 32.775ZM404.95312 37.9L403.1875 37.9L403.1875 26.696877Q402.5625 27.306252 401.53125 27.915627Q400.5 28.509377 399.67188 28.821877L399.67188 27.118752Q401.15625 26.431252 402.25 25.446877Q403.35938 24.446877 403.8125 23.525002L404.95312 23.525002L404.95312 37.9ZM409.34375 34.11875L411.09375 33.884377Q411.40625 35.384377 412.125 36.040627Q412.85938 36.696877 413.90625 36.696877Q415.14062 36.696877 415.98438 35.8375Q416.84375 34.978127 416.84375 33.7125Q416.84375 32.49375 416.04688 31.712502Q415.26562 30.931252 414.04688 30.931252Q413.54688 30.931252 412.8125 31.118752L413.0 29.571877Q413.17188 29.603127 413.28125 29.603127Q414.40625 29.603127 415.29688 29.025002Q416.20312 28.431252 416.20312 27.212502Q416.20312 26.243752 415.54688 25.603127Q414.89062 24.962502 413.85938 24.962502Q412.84375 24.962502 412.15625 25.618752Q411.46875 26.259377 411.28125 27.540627L409.51562 27.228127Q409.84375 25.462502 410.98438 24.493752Q412.125 23.525002 413.82812 23.525002Q415.0 23.525002 415.98438 24.025002Q416.96875 24.525002 417.48438 25.400002Q418.01562 26.275002 418.01562 27.243752Q418.01562 28.165627 417.51562 28.931252Q417.01562 29.696877 416.04688 30.150002Q417.3125 30.431252 418.01562 31.368752Q418.71875 32.290627 418.71875 33.665627Q418.71875 35.540627 417.34375 36.853127Q415.98438 38.15 413.89062 38.15Q412.0 38.15 410.75 37.025Q409.51562 35.9 409.34375 34.11875ZM425.96875 37.9L425.96875 34.478127L419.75 34.478127L419.75 32.853127L426.28125 23.587502L427.71875 23.587502L427.71875 32.853127L429.65625 32.853127L429.65625 34.478127L427.71875 34.478127L427.71875 37.9L425.96875 37.9ZM425.96875 32.853127L425.96875 26.400002L421.48438 32.853127L425.96875 32.853127ZM431.14062 33.603127L431.14062 31.837502L436.53125 31.837502L436.53125 33.603127L431.14062 33.603127ZM444.95312 37.9L443.1875 37.9L443.1875 26.696877Q442.5625 27.306252 441.53125 27.915627Q440.5 28.509377 439.67188 28.821877L439.67188 27.118752Q441.15625 26.431252 442.25 25.446877Q443.35938 24.446877 443.8125 23.525002L444.95312 23.525002L444.95312 37.9ZM449.32812 30.837502Q449.32812 28.306252 449.84375 26.759377Q450.375 25.196877 451.40625 24.368752Q452.4375 23.525002 454.0 23.525002Q455.15625 23.525002 456.01562 23.993752Q456.89062 24.446877 457.45312 25.321877Q458.01562 26.196877 458.34375 27.462502Q458.67188 28.712502 458.67188 30.837502Q458.67188 33.353127 458.14062 34.9Q457.625 36.446877 456.59375 37.30625Q455.57812 38.15 454.0 38.15Q451.92188 38.15 450.75 36.665627Q449.32812 34.86875 449.32812 30.837502ZM451.14062 30.837502Q451.14062 34.36875 451.95312 35.540627Q452.78125 36.696877 454.0 36.696877Q455.20312 36.696877 456.03125 35.525Q456.85938 34.353127 456.85938 30.837502Q456.85938 27.306252 456.03125 26.150002Q455.20312 24.978127 453.98438 24.978127Q452.76562 24.978127 452.04688 26.009377Q451.14062 27.306252 451.14062 30.837502ZM466.46875 30.931252Q466.46875 27.368752 468.375 25.353127Q470.29688 23.321877 473.32812 23.321877Q475.3125 23.321877 476.89062 24.275002Q478.48438 25.228127 479.3125 26.931252Q480.15625 28.618752 480.15625 30.759377Q480.15625 32.93125 479.28125 34.65Q478.40625 36.36875 476.78125 37.259377Q475.17188 38.15 473.3125 38.15Q471.29688 38.15 469.70312 37.18125Q468.10938 36.196877 467.28125 34.509377Q466.46875 32.80625 466.46875 30.931252ZM468.42188 30.962502Q468.42188 33.540627 469.8125 35.040627Q471.20312 36.525 473.29688 36.525Q475.4375 36.525 476.8125 35.025Q478.20312 33.509377 478.20312 30.743752Q478.20312 29.009377 477.60938 27.712502Q477.03125 26.400002 475.89062 25.681252Q474.75 24.962502 473.32812 24.962502Q471.32812 24.962502 469.875 26.353127Q468.42188 27.728127 468.42188 30.962502ZM493.26562 32.884377L495.15625 33.353127Q494.5625 35.696877 493.01562 36.93125Q491.46875 38.15 489.21875 38.15Q486.90625 38.15 485.45312 37.2125Q484.01562 36.259377 483.25 34.478127Q482.5 32.68125 482.5 30.634377Q482.5 28.400002 483.34375 26.743752Q484.20312 25.071877 485.78125 24.212502Q487.35938 23.337502 489.25 23.337502Q491.40625 23.337502 492.85938 24.431252Q494.32812 25.525002 494.90625 27.509377L493.04688 27.946877Q492.54688 26.384377 491.59375 25.681252Q490.65625 24.962502 489.21875 24.962502Q487.5625 24.962502 486.45312 25.759377Q485.34375 26.540627 484.89062 27.884377Q484.45312 29.212502 484.45312 30.618752Q484.45312 32.446877 484.98438 33.821877Q485.51562 35.18125 486.64062 35.853127Q487.76562 36.525 489.0625 36.525Q490.65625 36.525 491.76562 35.603127Q492.875 34.68125 493.26562 32.884377ZM495.59375 37.9L501.125 30.431252L496.25 23.587502L498.5 23.587502L501.09375 27.259377Q501.90625 28.400002 502.25 29.009377Q502.73438 28.228127 503.375 27.384377L506.26562 23.587502L508.32812 23.587502L503.29688 30.337502L508.71875 37.9L506.375 37.9L502.76562 32.790627Q502.46875 32.353127 502.14062 31.837502Q501.65625 32.61875 501.45312 32.915627L497.85938 37.9L495.59375 37.9ZM509.46875 30.931252Q509.46875 27.368752 511.375 25.353127Q513.2969 23.321877 516.3281 23.321877Q518.3125 23.321877 519.8906 24.275002Q521.4844 25.228127 522.3125 26.931252Q523.15625 28.618752 523.15625 30.759377Q523.15625 32.93125 522.28125 34.65Q521.40625 36.36875 519.78125 37.259377Q518.1719 38.15 516.3125 38.15Q514.2969 38.15 512.7031 37.18125Q511.10938 36.196877 510.28125 34.509377Q509.46875 32.80625 509.46875 30.931252ZM511.42188 30.962502Q511.42188 33.540627 512.8125 35.040627Q514.2031 36.525 516.2969 36.525Q518.4375 36.525 519.8125 35.025Q521.2031 33.509377 521.2031 30.743752Q521.2031 29.009377 520.6094 27.712502Q520.03125 26.400002 518.8906 25.681252Q517.75 24.962502 516.3281 24.962502Q514.3281 24.962502 512.875 26.353127Q511.42188 27.728127 511.42188 30.962502Z" fill-rule="nonzero"/></svg>